<svg width="10" height="20" viewBox="0 0 10 20" fill="none" xmlns="http://www.w3.org/2000/svg">
<path d="M5.095 17.046C4.497 17.046 3.90667 16.9923 3.324 16.885C2.74133 16.7777 2.18933 16.6397 1.668 16.471C1.14667 16.287 0.663667 16.0877 0.219 15.873L0.725 12.561C0.786333 12.4537 0.886 12.377 1.024 12.331C1.17733 12.285 1.323 12.262 1.461 12.262C1.66033 12.262 1.81367 12.285 1.921 12.331L2.128 15.275L1.668 14.539C2.06667 14.8917 2.55733 15.183 3.14 15.413C3.738 15.6277 4.37433 15.735 5.049 15.735C5.80033 15.735 6.42133 15.5203 6.912 15.091C7.40267 14.6617 7.648 14.102 7.648 13.412C7.648 12.998 7.556 12.6453 7.372 12.354C7.20333 12.0473 6.89667 11.7483 6.452 11.457C6.00733 11.1657 5.36333 10.8283 4.52 10.445C3.61533 10.031 2.887 9.60933 2.335 9.18C1.79833 8.75067 1.40733 8.283 1.162 7.777C0.916667 7.271 0.794 6.68067 0.794 6.006C0.794 4.84067 1.185 3.913 1.967 3.223C2.76433 2.51767 3.82233 2.165 5.141 2.165C5.555 2.165 5.99967 2.20333 6.475 2.28C6.95033 2.35667 7.42567 2.47167 7.901 2.625C8.37633 2.77833 8.821 2.97 9.235 3.2L8.89 6.328C8.58333 6.328 8.338 6.28967 8.154 6.213C7.97 6.13633 7.86267 6.03667 7.832 5.914L7.533 3.591L8.108 4.603C7.81667 4.26567 7.40267 3.98967 6.866 3.775C6.32933 3.56033 5.762 3.453 5.164 3.453C4.428 3.453 3.84533 3.637 3.416 4.005C3.002 4.35767 2.795 4.84833 2.795 5.477C2.795 5.86033 2.887 6.20533 3.071 6.512C3.255 6.80333 3.56933 7.09467 4.014 7.386C4.45867 7.662 5.08733 7.984 5.9 8.352C6.88133 8.79667 7.66333 9.23367 8.246 9.663C8.82867 10.0923 9.24267 10.56 9.488 11.066C9.74867 11.5567 9.879 12.147 9.879 12.837C9.879 13.6803 9.67967 14.424 9.281 15.068C8.88233 15.6967 8.33033 16.1873 7.625 16.54C6.91967 16.8773 6.07633 17.046 5.095 17.046ZM5.762 19.254C5.56267 19.254 5.35567 19.231 5.141 19.185C4.92633 19.1543 4.74233 19.1007 4.589 19.024V0.00299948C4.773 0.00299948 4.97233 0.0259992 5.187 0.0719986C5.417 0.102666 5.60867 0.156333 5.762 0.232999V19.254Z" fill="black"/>
</svg>
