<svg width="25" height="25" viewBox="0 0 25 25" fill="none" xmlns="http://www.w3.org/2000/svg">
<path fill-rule="evenodd" clip-rule="evenodd" d="M12.5 2.08333C6.74703 2.08333 2.08333 6.74703 2.08333 12.5C2.08333 18.253 6.74703 22.9167 12.5 22.9167C18.253 22.9167 22.9167 18.253 22.9167 12.5C22.9167 6.74703 18.253 2.08333 12.5 2.08333ZM0 12.5C0 5.59644 5.59644 0 12.5 0C19.4036 0 25 5.59644 25 12.5C25 19.4036 19.4036 25 12.5 25C5.59644 25 0 19.4036 0 12.5ZM12.1528 5.55556C12.7281 5.55556 13.1944 6.02193 13.1944 6.59722V11.8056H15.625C16.2003 11.8056 16.6667 12.2719 16.6667 12.8472C16.6667 13.4225 16.2003 13.8889 15.625 13.8889H12.1528C11.5775 13.8889 11.1111 13.4225 11.1111 12.8472V6.59722C11.1111 6.02193 11.5775 5.55556 12.1528 5.55556Z" fill="black"/>
</svg>
