<svg width="25" height="19" viewBox="0 0 25 19" fill="none" xmlns="http://www.w3.org/2000/svg">
<path fill-rule="evenodd" clip-rule="evenodd" d="M5.44384 5.45583e-07H12.6117C13.3536 -1.39341e-05 13.9728 -2.59057e-05 14.4787 0.0403614C15.0063 0.0824841 15.5017 0.173563 15.9701 0.40678C16.6888 0.764593 17.2731 1.33554 17.6393 2.03779C17.8779 2.4955 17.9711 2.97953 18.0142 3.49509C18.0421 3.82857 18.0512 4.21245 18.0541 4.64953L20.0976 3.45149C20.6135 3.14897 21.0611 2.88651 21.4366 2.70976C21.816 2.53121 22.279 2.36023 22.795 2.40722C23.4866 2.47021 24.1175 2.81928 24.5286 3.36631C24.8353 3.77448 24.9235 4.25045 24.962 4.66015C25 5.06573 25 5.57585 25 6.16383V12.8362C25 13.4242 25 13.9343 24.962 14.3399C24.9235 14.7495 24.8353 15.2255 24.5286 15.6337C24.1175 16.1807 23.4866 16.5298 22.795 16.5928C22.279 16.6398 21.816 16.4688 21.4366 16.2902C21.0611 16.1135 20.6135 15.851 20.0975 15.5485L18.0541 14.3505C18.0512 14.7876 18.0421 15.1714 18.0142 15.5049C17.9711 16.0205 17.8779 16.5045 17.6393 16.9622C17.2731 17.6645 16.6888 18.2354 15.9701 18.5932C15.5017 18.8264 15.0063 18.9175 14.4787 18.9596C13.9728 19 13.3536 19 12.6117 19H5.44382C4.70195 19 4.08272 19 3.57685 18.9596C3.04923 18.9175 2.55387 18.8264 2.08545 18.5932C1.36678 18.2354 0.782479 17.6645 0.416296 16.9622C0.177624 16.5045 0.0844136 16.0205 0.0413055 15.5049C-2.65116e-05 15.0106 -1.426e-05 14.4055 5.58345e-07 13.6806V5.31941C-1.426e-05 4.59449 -2.65116e-05 3.98941 0.0413055 3.49509C0.0844136 2.97953 0.177623 2.4955 0.416296 2.03779C0.782479 1.33554 1.36678 0.764593 2.08545 0.40678C2.55387 0.173563 3.04923 0.0824841 3.57685 0.0403614C4.08273 -2.59057e-05 4.70196 -1.39341e-05 5.44384 5.45583e-07ZM18.0556 11.9773L21.1287 13.779C21.6972 14.1123 22.062 14.325 22.3408 14.4562C22.5146 14.538 22.5968 14.5587 22.6202 14.5637C22.7055 14.5513 22.7831 14.5084 22.8379 14.4433C22.8455 14.4211 22.8697 14.3416 22.8873 14.1539C22.9156 13.8528 22.9167 13.4376 22.9167 12.7898V6.21016C22.9167 5.5624 22.9156 5.14722 22.8873 4.84614C22.8697 4.65843 22.8455 4.57891 22.8379 4.55674C22.7831 4.49159 22.7055 4.44866 22.6202 4.43634C22.5968 4.44131 22.5146 4.46195 22.3408 4.54376C22.062 4.67498 21.6972 4.88771 21.1287 5.22098L18.0556 7.02273V11.9773ZM3.7465 2.06931C3.34772 2.10115 3.15705 2.15799 3.03127 2.22061C2.7046 2.38326 2.43901 2.64278 2.27256 2.96198C2.20847 3.08489 2.1503 3.2712 2.11772 3.66086C2.08414 4.06241 2.08333 4.58385 2.08333 5.36071V13.6393C2.08333 14.4162 2.08414 14.9376 2.11772 15.3391C2.1503 15.7288 2.20847 15.9151 2.27256 16.038C2.43901 16.3572 2.7046 16.6167 3.03127 16.7794C3.15705 16.842 3.34771 16.8988 3.7465 16.9307C4.15744 16.9635 4.69107 16.9643 5.48611 16.9643H12.5694C13.3645 16.9643 13.8981 16.9635 14.3091 16.9307C14.7078 16.8988 14.8985 16.842 15.0243 16.7794C15.351 16.6167 15.6166 16.3572 15.783 16.038C15.8471 15.9151 15.9053 15.7288 15.9378 15.3391C15.9714 14.9376 15.9722 14.4162 15.9722 13.6393V5.36071C15.9722 4.58385 15.9714 4.06241 15.9378 3.66086C15.9053 3.2712 15.8471 3.08489 15.783 2.96198C15.6166 2.64278 15.351 2.38326 15.0243 2.22061C14.8985 2.15799 14.7078 2.10115 14.3091 2.06931C13.8981 2.03651 13.3645 2.03572 12.5694 2.03572H5.48611C4.69107 2.03572 4.15744 2.03651 3.7465 2.06931Z" fill="black"/>
</svg>
