<svg width="187" height="38" viewBox="0 0 187 38" fill="none" xmlns="http://www.w3.org/2000/svg">
<path d="M0.989 37V3.288H24.166V10.687H11.034V17.596H22.353V25.044H11.034V37H0.989ZM33.9939 37.392C32.4586 37.392 31.1683 37.147 30.1229 36.657C29.1103 36.1343 28.3426 35.3177 27.8199 34.207C27.2973 33.0637 27.0359 31.5937 27.0359 29.797C27.0359 27.9023 27.2483 26.416 27.6729 25.338C28.1303 24.2273 28.9306 23.427 30.0739 22.937C31.2499 22.447 32.8996 22.202 35.0229 22.202C35.3169 22.202 35.7089 22.2183 36.1989 22.251C36.6889 22.251 37.2279 22.2673 37.8159 22.3C38.4366 22.3 39.0409 22.3163 39.6289 22.349C40.2496 22.349 40.8213 22.3653 41.3439 22.398V21.516C41.3439 20.732 41.2786 20.1277 41.1479 19.703C41.0173 19.2457 40.7559 18.9353 40.3639 18.772C40.0046 18.576 39.4493 18.4617 38.6979 18.429C37.9466 18.3637 36.9503 18.331 35.7089 18.331C34.9576 18.331 34.1409 18.3473 33.2589 18.38C32.4096 18.4127 31.5603 18.4617 30.7109 18.527C29.8616 18.5597 29.0939 18.6087 28.4079 18.674V12.451C29.7146 12.2223 31.2336 12.0263 32.9649 11.863C34.6963 11.6997 36.5746 11.618 38.5999 11.618C40.8539 11.618 42.7159 11.765 44.1859 12.059C45.6559 12.3203 46.8156 12.7287 47.6649 13.284C48.5469 13.8393 49.1839 14.5417 49.5759 15.391C50.0006 16.2077 50.2783 17.1713 50.4089 18.282C50.5396 19.3927 50.6049 20.6503 50.6049 22.055V37H41.6379L41.4419 34.158H41.0009C40.3476 35.138 39.6289 35.8567 38.8449 36.314C38.0936 36.7713 37.3096 37.0653 36.4929 37.196C35.6763 37.3267 34.8433 37.392 33.9939 37.392ZM38.4039 31.218C38.8939 31.218 39.2859 31.1853 39.5799 31.12C39.9066 31.022 40.1843 30.8913 40.4129 30.728C40.6743 30.532 40.8539 30.3033 40.9519 30.042C41.1153 29.748 41.2133 29.405 41.2459 29.013C41.3113 28.5883 41.3439 28.0983 41.3439 27.543V26.367H38.1589C37.4403 26.367 36.8849 26.4323 36.4929 26.563C36.1336 26.661 35.9049 26.906 35.8069 27.298C35.7089 27.6573 35.6599 28.2127 35.6599 28.964C35.6599 29.5193 35.7089 29.9767 35.8069 30.336C35.9049 30.6627 36.1499 30.8913 36.5419 31.022C36.9339 31.1527 37.5546 31.218 38.4039 31.218ZM55.7209 37V12.01H64.6389L64.8349 14.901H65.2759C65.8312 14.0517 66.4682 13.3983 67.1869 12.941C67.9382 12.451 68.7385 12.108 69.5879 11.912C70.4699 11.716 71.3355 11.618 72.1849 11.618C73.8182 11.618 75.1085 11.8303 76.0559 12.255C77.0359 12.6797 77.7709 13.3167 78.2609 14.166C78.7835 14.9827 79.1102 15.9953 79.2409 17.204C79.4042 18.4127 79.4859 19.801 79.4859 21.369V37H70.2249V23.819C70.2249 22.643 70.1922 21.7283 70.1269 21.075C70.0942 20.4217 69.9962 19.948 69.8329 19.654C69.6695 19.36 69.4082 19.1803 69.0489 19.115C68.7222 19.017 68.2812 18.968 67.7259 18.968C67.1052 18.968 66.5989 19.0333 66.2069 19.164C65.8475 19.262 65.5862 19.4907 65.4229 19.85C65.2595 20.1767 65.1452 20.6667 65.0799 21.32C65.0145 21.9407 64.9819 22.8063 64.9819 23.917V37H55.7209ZM98.9312 37.392C96.3505 37.392 94.1945 37.2287 92.4632 36.902C90.7319 36.5427 89.3272 35.971 88.2492 35.187C87.1712 34.3703 86.3545 33.3087 85.7992 32.002C85.2765 30.6627 84.9172 29.0293 84.7212 27.102C84.5252 25.142 84.4272 22.8227 84.4272 20.144C84.4272 17.4653 84.5252 15.1623 84.7212 13.235C84.9172 11.275 85.2765 9.64167 85.7992 8.335C86.3545 6.99566 87.1712 5.934 88.2492 5.15C89.3272 4.33333 90.7319 3.76167 92.4632 3.435C94.1945 3.07566 96.3505 2.896 98.9312 2.896C99.9439 2.896 100.989 2.945 102.067 3.043C103.178 3.10833 104.223 3.20633 105.203 3.337C106.216 3.46767 107.082 3.61467 107.8 3.778V10.736C106.624 10.638 105.628 10.5563 104.811 10.491C103.995 10.4257 103.309 10.3767 102.753 10.344C102.198 10.3113 101.724 10.295 101.332 10.295C100.026 10.295 98.9475 10.3603 98.0982 10.491C97.2489 10.589 96.5792 10.8177 96.0892 11.177C95.5992 11.5363 95.2399 12.0753 95.0112 12.794C94.8152 13.5127 94.6845 14.4763 94.6192 15.685C94.5865 16.861 94.5702 18.3473 94.5702 20.144C94.5702 21.9407 94.5865 23.4433 94.6192 24.652C94.6845 25.828 94.8152 26.7753 95.0112 27.494C95.2399 28.2127 95.5992 28.7517 96.0892 29.111C96.5792 29.4703 97.2489 29.7153 98.0982 29.846C98.9475 29.944 100.026 29.993 101.332 29.993C102.345 29.993 103.472 29.9603 104.713 29.895C105.987 29.797 107.082 29.6827 107.996 29.552V36.608C107.278 36.7387 106.396 36.8693 105.35 37C104.338 37.1307 103.276 37.2287 102.165 37.294C101.055 37.3593 99.9765 37.392 98.9312 37.392ZM112.473 37V0.592999H121.734V14.852H122.224C122.746 14.0027 123.367 13.3493 124.086 12.892C124.804 12.402 125.588 12.0753 126.438 11.912C127.287 11.716 128.12 11.618 128.937 11.618C130.57 11.618 131.86 11.8303 132.808 12.255C133.788 12.6797 134.523 13.3167 135.013 14.166C135.535 14.9827 135.862 15.9953 135.993 17.204C136.156 18.4127 136.238 19.801 136.238 21.369V37H126.977V23.819C126.977 22.643 126.944 21.7283 126.879 21.075C126.846 20.4217 126.748 19.948 126.585 19.654C126.421 19.36 126.16 19.1803 125.801 19.115C125.474 19.017 125.033 18.968 124.478 18.968C123.857 18.968 123.351 19.0333 122.959 19.164C122.599 19.262 122.338 19.4907 122.175 19.85C122.011 20.1767 121.897 20.6667 121.832 21.32C121.766 21.9407 121.734 22.8063 121.734 23.917V37H112.473ZM147.402 37.392C145.867 37.392 144.576 37.147 143.531 36.657C142.518 36.1343 141.751 35.3177 141.228 34.207C140.705 33.0637 140.444 31.5937 140.444 29.797C140.444 27.9023 140.656 26.416 141.081 25.338C141.538 24.2273 142.339 23.427 143.482 22.937C144.658 22.447 146.308 22.202 148.431 22.202C148.725 22.202 149.117 22.2183 149.607 22.251C150.097 22.251 150.636 22.2673 151.224 22.3C151.845 22.3 152.449 22.3163 153.037 22.349C153.658 22.349 154.229 22.3653 154.752 22.398V21.516C154.752 20.732 154.687 20.1277 154.556 19.703C154.425 19.2457 154.164 18.9353 153.772 18.772C153.413 18.576 152.857 18.4617 152.106 18.429C151.355 18.3637 150.358 18.331 149.117 18.331C148.366 18.331 147.549 18.3473 146.667 18.38C145.818 18.4127 144.968 18.4617 144.119 18.527C143.27 18.5597 142.502 18.6087 141.816 18.674V12.451C143.123 12.2223 144.642 12.0263 146.373 11.863C148.104 11.6997 149.983 11.618 152.008 11.618C154.262 11.618 156.124 11.765 157.594 12.059C159.064 12.3203 160.224 12.7287 161.073 13.284C161.955 13.8393 162.592 14.5417 162.984 15.391C163.409 16.2077 163.686 17.1713 163.817 18.282C163.948 19.3927 164.013 20.6503 164.013 22.055V37H155.046L154.85 34.158H154.409C153.756 35.138 153.037 35.8567 152.253 36.314C151.502 36.7713 150.718 37.0653 149.901 37.196C149.084 37.3267 148.251 37.392 147.402 37.392ZM151.812 31.218C152.302 31.218 152.694 31.1853 152.988 31.12C153.315 31.022 153.592 30.8913 153.821 30.728C154.082 30.532 154.262 30.3033 154.36 30.042C154.523 29.748 154.621 29.405 154.654 29.013C154.719 28.5883 154.752 28.0983 154.752 27.543V26.367H151.567C150.848 26.367 150.293 26.4323 149.901 26.563C149.542 26.661 149.313 26.906 149.215 27.298C149.117 27.6573 149.068 28.2127 149.068 28.964C149.068 29.5193 149.117 29.9767 149.215 30.336C149.313 30.6627 149.558 30.8913 149.95 31.022C150.342 31.1527 150.963 31.218 151.812 31.218ZM171.585 37V18.723H167.224V12.01H171.585V4.758H180.993V12.01H186.187V18.723H180.993V37H171.585Z" fill="#181817"/>
</svg>
