<svg width="223" height="73" viewBox="0 0 223 73" fill="none" xmlns="http://www.w3.org/2000/svg">
<path d="M47.705 26.5C47.9617 26.5 48.1833 26.5933 48.37 26.78C48.5567 26.9667 48.65 27.1883 48.65 27.445V32.765C48.65 33.0217 48.5567 33.2433 48.37 33.43C48.1833 33.6167 47.9617 33.71 47.705 33.71H33.95V35.95H45.43C45.6867 35.95 45.9083 36.0433 46.095 36.23C46.2817 36.4167 46.375 36.6383 46.375 36.895V42.18C46.375 42.4367 46.2817 42.6583 46.095 42.845C45.9083 43.0317 45.6867 43.125 45.43 43.125H33.95V50.055C33.95 50.3117 33.8567 50.5333 33.67 50.72C33.4833 50.9067 33.2617 51 33.005 51H25.445C25.1883 51 24.9667 50.9067 24.78 50.72C24.5933 50.5333 24.5 50.3117 24.5 50.055V27.445C24.5 27.1883 24.5933 26.9667 24.78 26.78C24.9667 26.5933 25.1883 26.5 25.445 26.5H47.705ZM59.5213 49.81C59.218 50.6033 58.693 51 57.9463 51H51.3313C51.1213 51 50.9347 50.93 50.7713 50.79C50.6313 50.6267 50.5613 50.44 50.5613 50.23L50.5963 50.02L58.2263 27.655C58.3197 27.3517 58.4947 27.0833 58.7513 26.85C59.008 26.6167 59.358 26.5 59.8013 26.5H69.5313C69.9747 26.5 70.3247 26.6167 70.5813 26.85C70.838 27.0833 71.013 27.3517 71.1063 27.655L78.7363 50.02L78.7713 50.23C78.7713 50.44 78.6897 50.6267 78.5263 50.79C78.3863 50.93 78.2113 51 78.0013 51H71.3863C70.6397 51 70.1147 50.6033 69.8113 49.81L68.9363 47.36H60.3963L59.5213 49.81ZM64.6663 33.255L62.1813 40.535H67.1513L64.6663 33.255ZM104.203 26.5C104.459 26.5 104.681 26.5933 104.868 26.78C105.054 26.9667 105.148 27.1883 105.148 27.445V50.055C105.148 50.3117 105.054 50.5333 104.868 50.72C104.681 50.9067 104.459 51 104.203 51H98.5677C98.0077 51 97.541 50.755 97.1677 50.265L89.5377 40.535V50.055C89.5377 50.3117 89.4443 50.5333 89.2577 50.72C89.071 50.9067 88.8493 51 88.5927 51H82.0827C81.826 51 81.6043 50.9067 81.4177 50.72C81.231 50.5333 81.1377 50.3117 81.1377 50.055V27.445C81.1377 27.1883 81.231 26.9667 81.4177 26.78C81.6043 26.5933 81.826 26.5 82.0827 26.5H87.7527C88.3127 26.5 88.7677 26.7333 89.1177 27.2L96.7477 37.735V27.445C96.7477 27.1883 96.841 26.9667 97.0277 26.78C97.2143 26.5933 97.436 26.5 97.6927 26.5H104.203ZM118.714 41.55C118.714 42.5067 119.029 43.2417 119.659 43.755C120.312 44.2683 121.187 44.525 122.284 44.525C123.264 44.525 123.987 44.3617 124.454 44.035C124.921 43.7083 125.317 43.2183 125.644 42.565C125.947 41.9583 126.356 41.655 126.869 41.655H134.429C134.639 41.655 134.814 41.7367 134.954 41.9C135.117 42.04 135.199 42.215 135.199 42.425C135.199 43.8483 134.721 45.2483 133.764 46.625C132.807 47.9783 131.349 49.11 129.389 50.02C127.452 50.9067 125.084 51.35 122.284 51.35C119.787 51.35 117.559 50.9767 115.599 50.23C113.662 49.46 112.122 48.2933 110.979 46.73C109.836 45.1433 109.264 43.1717 109.264 40.815V36.685C109.264 34.3283 109.836 32.3683 110.979 30.805C112.122 29.2183 113.662 28.0517 115.599 27.305C117.559 26.535 119.787 26.15 122.284 26.15C125.084 26.15 127.452 26.605 129.389 27.515C131.349 28.4017 132.807 29.5333 133.764 30.91C134.721 32.2633 135.199 33.6517 135.199 35.075C135.199 35.285 135.117 35.4717 134.954 35.635C134.814 35.775 134.639 35.845 134.429 35.845H126.869C126.356 35.845 125.947 35.5417 125.644 34.935C125.317 34.2817 124.921 33.7917 124.454 33.465C123.987 33.1383 123.264 32.975 122.284 32.975C121.187 32.975 120.312 33.2317 119.659 33.745C119.029 34.2583 118.714 34.9933 118.714 35.95V41.55ZM162.275 26.5C162.532 26.5 162.754 26.5933 162.94 26.78C163.127 26.9667 163.22 27.1883 163.22 27.445V50.055C163.22 50.3117 163.127 50.5333 162.94 50.72C162.754 50.9067 162.532 51 162.275 51H155.065C154.809 51 154.587 50.9067 154.4 50.72C154.214 50.5333 154.12 50.3117 154.12 50.055V42.6H147.12V50.055C147.12 50.3117 147.027 50.5333 146.84 50.72C146.654 50.9067 146.432 51 146.175 51H138.965C138.709 51 138.487 50.9183 138.3 50.755C138.114 50.5683 138.02 50.335 138.02 50.055V27.445C138.02 27.1883 138.114 26.9667 138.3 26.78C138.487 26.5933 138.709 26.5 138.965 26.5H146.175C146.432 26.5 146.654 26.5933 146.84 26.78C147.027 26.9667 147.12 27.1883 147.12 27.445V34.62H154.12V27.445C154.12 27.1883 154.214 26.9667 154.4 26.78C154.587 26.5933 154.809 26.5 155.065 26.5H162.275ZM174.267 49.81C173.963 50.6033 173.438 51 172.692 51H166.077C165.867 51 165.68 50.93 165.517 50.79C165.377 50.6267 165.307 50.44 165.307 50.23L165.342 50.02L172.972 27.655C173.065 27.3517 173.24 27.0833 173.497 26.85C173.753 26.6167 174.103 26.5 174.547 26.5H184.277C184.72 26.5 185.07 26.6167 185.327 26.85C185.583 27.0833 185.758 27.3517 185.852 27.655L193.482 50.02L193.517 50.23C193.517 50.44 193.435 50.6267 193.272 50.79C193.132 50.93 192.957 51 192.747 51H186.132C185.385 51 184.86 50.6033 184.557 49.81L183.682 47.36H175.142L174.267 49.81ZM179.412 33.255L176.927 40.535H181.897L179.412 33.255ZM220.068 26.5C220.325 26.5 220.546 26.5933 220.733 26.78C220.92 26.9667 221.013 27.1883 221.013 27.445V33.08C221.013 33.3367 220.92 33.5583 220.733 33.745C220.546 33.9317 220.325 34.025 220.068 34.025H212.543V50.055C212.543 50.3117 212.45 50.5333 212.263 50.72C212.076 50.9067 211.855 51 211.598 51H204.388C204.131 51 203.91 50.9067 203.723 50.72C203.536 50.5333 203.443 50.3117 203.443 50.055V34.025H195.918C195.661 34.025 195.44 33.9317 195.253 33.745C195.066 33.5583 194.973 33.3367 194.973 33.08V27.445C194.973 27.1883 195.066 26.9667 195.253 26.78C195.44 26.5933 195.661 26.5 195.918 26.5H220.068Z" fill="url(#paint0_linear_250_89)"/>
<path d="M17.5 0L19.8114 15.1886L35 17.5L19.8114 19.8114L17.5 35L15.1886 19.8114L0 17.5L15.1886 15.1886L17.5 0Z" fill="url(#paint1_radial_250_89)"/>
<defs>
<linearGradient id="paint0_linear_250_89" x1="25.6904" y1="18.4783" x2="224.803" y2="34.9832" gradientUnits="userSpaceOnUse">
<stop stop-color="#DB7859"/>
<stop offset="0.481871" stop-color="#CE67FF"/>
<stop offset="1" stop-color="#DB7859"/>
</linearGradient>
<radialGradient id="paint1_radial_250_89" cx="0" cy="0" r="1" gradientUnits="userSpaceOnUse" gradientTransform="translate(17.5 17.5) rotate(88.7811) scale(18.2819)">
<stop stop-color="#BA4DED"/>
<stop offset="1" stop-color="#DB7859"/>
</radialGradient>
</defs>
</svg>
