<svg viewBox="0 0 16 16" fill="none" xmlns="http://www.w3.org/2000/svg">
<path d="M2.70718 0.585801C2.31666 0.195276 1.68349 0.195277 1.29297 0.585801L0.585862 1.29291C0.195338 1.68343 0.195338 2.3166 0.585862 2.70712L5.87877 8.00003L0.585896 13.2929C0.195372 13.6834 0.195372 14.3166 0.585896 14.7071L1.293 15.4142C1.68353 15.8048 2.31669 15.8048 2.70722 15.4142L8.00009 10.1214L13.293 15.4142C13.6835 15.8048 14.3167 15.8048 14.7072 15.4142L15.4143 14.7071C15.8048 14.3166 15.8048 13.6834 15.4143 13.2929L10.1214 8.00003L15.4143 2.70712C15.8048 2.3166 15.8048 1.68343 15.4143 1.29291L14.7072 0.585801C14.3167 0.195277 13.6835 0.195276 13.293 0.585801L8.00009 5.87871L2.70718 0.585801Z" fill="black"/>
</svg>
