<svg width="530" height="547" viewBox="0 0 530 547" fill="none" xmlns="http://www.w3.org/2000/svg">
<path d="M68.4107 10.8416L68.6864 9.88033L67.9546 9.6705L67.5575 10.32L68.4107 10.8416ZM126.855 27.6003L127.855 27.598L127.854 26.8463L127.131 26.6391L126.855 27.6003ZM127.186 170.84L126.91 171.802L128.189 172.168L128.186 170.838L127.186 170.84ZM82.0066 157.885L81.0102 157.801L80.9406 158.62L81.731 158.847L82.0066 157.885ZM84.2849 131.075L85.2813 131.159L85.3509 130.34L84.5605 130.113L84.2849 131.075ZM50.064 121.262L50.3396 120.301L49.5666 120.079L49.1843 120.787L50.064 121.262ZM37.2118 145.041L36.9362 146.002L37.7092 146.224L38.0916 145.516L37.2118 145.041ZM-6.04493 132.637L-6.89813 132.115L-7.58327 133.236L-6.32056 133.598L-6.04493 132.637ZM86.4515 106.105L86.1759 107.066L87.3669 107.407L87.4493 106.171L86.4515 106.105ZM90.5485 44.6534L91.5463 44.7199L89.6716 44.1727L90.5485 44.6534ZM60.882 98.7727L60.0051 98.292L59.4037 99.3891L60.6063 99.734L60.882 98.7727ZM68.1351 11.8029L126.58 28.5616L127.131 26.6391L68.6864 9.88033L68.1351 11.8029ZM125.855 27.6027L126.186 170.843L128.186 170.838L127.855 27.598L125.855 27.6027ZM127.462 169.879L82.2823 156.924L81.731 158.847L126.91 171.802L127.462 169.879ZM83.0031 157.97L85.2813 131.159L83.2885 130.99L81.0102 157.801L83.0031 157.97ZM84.5605 130.113L50.3396 120.301L49.7884 122.223L84.0093 132.036L84.5605 130.113ZM49.1843 120.787L36.3321 144.565L38.0916 145.516L50.9437 121.738L49.1843 120.787ZM37.4875 144.079L-5.76929 131.676L-6.32056 133.598L36.9362 146.002L37.4875 144.079ZM-5.19172 133.159L69.2639 11.3632L67.5575 10.32L-6.89813 132.115L-5.19172 133.159ZM87.4493 106.171L91.5463 44.7199L89.5507 44.5869L85.4537 106.038L87.4493 106.171ZM89.6716 44.1727L60.0051 98.292L61.7589 99.2534L91.4254 45.1341L89.6716 44.1727ZM60.6063 99.734L86.1759 107.066L86.7272 105.143L61.1576 97.8114L60.6063 99.734ZM177.844 42.2212L178.12 41.2599L177.159 40.9843L176.883 41.9455L177.844 42.2212ZM216.487 53.3018L217.424 52.9525L217.248 52.4796L216.763 52.3405L216.487 53.3018ZM248.712 139.732L247.775 140.082L248.836 142.928L249.673 140.008L248.712 139.732ZM269.164 68.4067L269.44 67.4455L268.479 67.1698L268.203 68.1311L269.164 68.4067ZM303.577 78.2745L304.539 78.5502L304.814 77.5889L303.853 77.3133L303.577 78.2745ZM265.65 210.544L265.374 211.505L266.335 211.781L266.611 210.82L265.65 210.544ZM227.199 199.519L226.27 199.887L226.451 200.344L226.924 200.48L227.199 199.519ZM193.873 115.477L194.803 115.109L193.721 112.38L192.912 115.202L193.873 115.477ZM174.138 184.303L173.862 185.265L174.823 185.54L175.099 184.579L174.138 184.303ZM139.917 174.491L138.955 174.215L138.68 175.176L139.641 175.452L139.917 174.491ZM177.569 43.1824L216.211 54.2631L216.763 52.3405L178.12 41.2599L177.569 43.1824ZM215.55 53.6511L247.775 140.082L249.649 139.383L217.424 52.9525L215.55 53.6511ZM249.673 140.008L270.125 68.6824L268.203 68.1311L247.751 139.457L249.673 140.008ZM268.889 69.368L303.302 79.2358L303.853 77.3133L269.44 67.4455L268.889 69.368ZM302.616 77.9989L264.688 210.269L266.611 210.82L304.539 78.5502L302.616 77.9989ZM265.925 209.583L227.475 198.557L226.924 200.48L265.374 211.505L265.925 209.583ZM228.129 199.15L194.803 115.109L192.944 115.846L226.27 199.887L228.129 199.15ZM192.912 115.202L173.176 184.028L175.099 184.579L194.834 115.753L192.912 115.202ZM174.413 183.342L140.192 173.53L139.641 175.452L173.862 185.265L174.413 183.342ZM140.878 174.766L178.806 42.4968L176.883 41.9455L138.955 174.215L140.878 174.766ZM-42.4038 406.005L-43.131 406.691L-43.126 406.697L-43.121 406.702L-42.4038 406.005ZM-60.0378 373.901L-61.0101 374.134L-61.0084 374.141L-61.0066 374.148L-60.0378 373.901ZM-39.9983 303.289L-39.2948 304L-39.9983 303.289ZM-8.71816 285.627L-8.47794 286.597L-8.46889 286.595L-8.71816 285.627ZM48.1403 294.857L48.6409 293.991L48.1403 294.857ZM63.2111 306.876L64.1108 307.313L64.3992 306.718L63.9654 306.22L63.2111 306.876ZM49.4755 335.187L48.8799 335.99L49.8487 336.709L50.3752 335.623L49.4755 335.187ZM-0.266876 325.085L0.247152 325.943L0.256287 325.937L-0.266876 325.085ZM-14.5463 376.334L-15.4361 376.79L-15.4312 376.8L-15.4261 376.809L-14.5463 376.334ZM18.7602 394.415L18.8207 393.417L18.7602 394.415ZM32.6616 393.824L33.6562 393.928L33.7849 392.694L32.5518 392.83L32.6616 393.824ZM29.3346 425.743L29.5829 426.712L30.257 426.539L30.3292 425.847L29.3346 425.743ZM-9.72925 424.113C-22.3885 420.483 -33.0329 414.213 -41.6867 405.308L-43.121 406.702C-34.2098 415.872 -23.255 422.315 -10.2805 426.035L-9.72925 424.113ZM-41.6766 405.318C-50.1766 396.314 -55.9722 385.764 -59.069 373.653L-61.0066 374.148C-57.8266 386.585 -51.8661 397.438 -43.131 406.691L-41.6766 405.318ZM-59.0655 373.667C-61.9967 361.478 -61.654 349.062 -58.0241 336.403L-59.9466 335.852C-63.667 348.826 -64.026 361.593 -61.0101 374.134L-59.0655 373.667ZM-58.0241 336.403C-54.3185 323.48 -48.0722 312.688 -39.2948 304L-40.7018 302.578C-49.7431 311.528 -56.1548 322.628 -59.9466 335.852L-58.0241 336.403ZM-39.2948 304C-30.511 295.305 -20.2435 289.509 -8.47795 286.597L-8.95836 284.656C-21.0809 287.656 -31.6668 293.635 -40.7018 302.578L-39.2948 304ZM-8.46889 286.595C3.32604 283.559 15.5432 283.845 28.2026 287.475L28.7539 285.553C15.7796 281.832 3.19921 281.527 -8.96743 284.658L-8.46889 286.595ZM28.2026 287.475C35.0457 289.437 41.5241 292.186 47.6398 295.722L48.6409 293.991C42.3826 290.372 35.753 287.559 28.7539 285.553L28.2026 287.475ZM47.6398 295.722C53.7511 299.256 58.6827 303.196 62.4567 307.533L63.9654 306.22C60.0191 301.685 54.9035 297.612 48.6409 293.991L47.6398 295.722ZM62.3114 306.44L48.5758 334.75L50.3752 335.623L64.1108 307.313L62.3114 306.44ZM50.0711 334.384C41.7686 328.227 33.8266 324.042 26.2468 321.868L25.6955 323.791C32.9832 325.881 40.7108 329.933 48.8799 335.99L50.0711 334.384ZM26.2468 321.868C15.7974 318.872 6.74613 319.606 -0.790039 324.232L0.256287 325.937C7.19724 321.676 15.638 320.907 25.6955 323.791L26.2468 321.868ZM-0.780872 324.227C-8.27157 328.715 -13.5866 336.708 -16.8269 348.008L-14.9044 348.559C-11.75 337.559 -6.6658 330.085 0.24712 325.943L-0.780872 324.227ZM-16.8269 348.008C-19.9997 359.073 -19.5863 368.698 -15.4361 376.79L-13.6565 375.878C-17.5132 368.358 -17.9794 359.283 -14.9044 348.559L-16.8269 348.008ZM-15.4261 376.809C-11.1014 384.813 -3.57323 390.3 7.00314 393.332L7.55441 391.41C-2.63247 388.489 -9.65436 383.284 -13.6665 375.859L-15.4261 376.809ZM7.00314 393.332C11.0382 394.489 14.9376 395.185 18.6996 395.413L18.8207 393.417C15.2206 393.198 11.4658 392.531 7.55441 391.41L7.00314 393.332ZM18.6996 395.413C22.4588 395.641 27.1544 395.439 32.7715 394.818L32.5518 392.83C26.9957 393.444 22.4237 393.635 18.8207 393.417L18.6996 395.413ZM31.667 393.72L28.34 425.64L30.3292 425.847L33.6562 393.928L31.667 393.72ZM29.0862 424.775C16.2373 428.069 3.30502 427.85 -9.72925 424.113L-10.2805 426.035C3.08787 429.869 16.3819 430.096 29.5829 426.712L29.0862 424.775ZM82.5424 305.137L82.818 304.176L81.8568 303.9L81.5811 304.862L82.5424 305.137ZM125.799 317.541L126.76 317.817L127.036 316.855L126.075 316.58L125.799 317.541ZM110.694 370.218L109.733 369.942L109.457 370.904L110.419 371.179L110.694 370.218ZM151.644 381.96L151.368 382.922L152.33 383.197L152.605 382.236L151.644 381.96ZM166.749 329.283L167.025 328.322L166.063 328.046L165.788 329.007L166.749 329.283ZM210.198 341.742L211.159 342.018L211.435 341.056L210.474 340.781L210.198 341.742ZM172.27 474.012L171.995 474.973L172.956 475.248L173.232 474.287L172.27 474.012ZM128.821 461.553L127.86 461.277L127.584 462.238L128.546 462.514L128.821 461.553ZM143.706 409.645L144.667 409.92L144.943 408.959L143.981 408.683L143.706 409.645ZM102.756 397.902L103.032 396.941L102.07 396.666L101.795 397.627L102.756 397.902ZM87.8715 449.811L87.5958 450.772L88.5571 451.047L88.8327 450.086L87.8715 449.811ZM44.6147 437.407L43.6534 437.131L43.3778 438.093L44.339 438.368L44.6147 437.407ZM82.2667 306.099L125.524 318.502L126.075 316.58L82.818 304.176L82.2667 306.099ZM124.838 317.265L109.733 369.942L111.655 370.494L126.76 317.817L124.838 317.265ZM110.419 371.179L151.368 382.922L151.92 380.999L110.97 369.257L110.419 371.179ZM152.605 382.236L167.71 329.559L165.788 329.007L150.683 381.685L152.605 382.236ZM166.473 330.244L209.922 342.703L210.474 340.781L167.025 328.322L166.473 330.244ZM209.237 341.466L171.309 473.736L173.232 474.287L211.159 342.018L209.237 341.466ZM172.546 473.05L129.097 460.591L128.546 462.514L171.995 474.973L172.546 473.05ZM129.782 461.828L144.667 409.92L142.744 409.369L127.86 461.277L129.782 461.828ZM143.981 408.683L103.032 396.941L102.48 398.864L143.43 410.606L143.981 408.683ZM101.795 397.627L86.9102 449.535L88.8327 450.086L103.717 398.178L101.795 397.627ZM88.1471 448.849L44.8903 436.446L44.339 438.368L87.5958 450.772L88.1471 448.849ZM45.5759 437.683L83.5036 305.413L81.5811 304.862L43.6534 437.131L45.5759 437.683ZM260.173 356.072L260.449 355.111L259.717 354.901L259.32 355.55L260.173 356.072ZM318.618 372.831L319.618 372.829L319.616 372.077L318.893 371.87L318.618 372.831ZM318.948 516.071L318.673 517.032L319.951 517.399L319.948 516.068L318.948 516.071ZM273.769 503.116L272.773 503.031L272.703 503.85L273.493 504.077L273.769 503.116ZM276.047 476.305L277.044 476.39L277.113 475.571L276.323 475.344L276.047 476.305ZM241.826 466.493L242.102 465.531L241.329 465.31L240.947 466.017L241.826 466.493ZM228.974 490.271L228.699 491.232L229.471 491.454L229.854 490.747L228.974 490.271ZM185.717 477.867L184.864 477.346L184.179 478.467L185.442 478.829L185.717 477.867ZM278.214 451.335L277.938 452.296L279.129 452.638L279.212 451.402L278.214 451.335ZM282.311 389.884L283.309 389.95L281.434 389.403L282.311 389.884ZM252.644 444.003L251.767 443.522L251.166 444.62L252.369 444.964L252.644 444.003ZM259.897 357.033L318.342 373.792L318.893 371.87L260.449 355.111L259.897 357.033ZM317.618 372.833L317.948 516.073L319.948 516.068L319.618 372.829L317.618 372.833ZM319.224 515.11L274.045 502.155L273.493 504.077L318.673 517.032L319.224 515.11ZM274.765 503.2L277.044 476.39L275.051 476.221L272.773 503.031L274.765 503.2ZM276.323 475.344L242.102 465.531L241.551 467.454L275.772 477.266L276.323 475.344ZM240.947 466.017L228.094 489.796L229.854 490.747L242.706 466.968L240.947 466.017ZM229.25 489.31L185.993 476.906L185.442 478.829L228.699 491.232L229.25 489.31ZM186.571 478.389L261.026 356.594L259.32 355.55L184.864 477.346L186.571 478.389ZM279.212 451.402L283.309 389.95L281.313 389.817L277.216 451.269L279.212 451.402ZM281.434 389.403L251.767 443.522L253.521 444.484L283.188 390.365L281.434 389.403ZM252.369 444.964L277.938 452.296L278.489 450.374L252.92 443.042L252.369 444.964ZM372.223 419.827L373.184 420.103L373.46 419.141L372.499 418.866L372.223 419.827ZM344.731 411.944L343.77 411.668L343.494 412.629L344.455 412.905L344.731 411.944ZM353.11 382.721L353.386 381.76L352.425 381.485L352.149 382.446L353.11 382.721ZM452.889 411.333L453.851 411.608L454.126 410.647L453.165 410.371L452.889 411.333ZM444.51 440.555L444.234 441.516L445.196 441.792L445.471 440.831L444.51 440.555ZM417.018 432.672L417.294 431.71L416.332 431.435L416.057 432.396L417.018 432.672ZM387.47 535.719L387.194 536.68L388.155 536.956L388.431 535.995L387.47 535.719ZM342.675 522.874L341.714 522.599L341.438 523.56L342.399 523.836L342.675 522.874ZM372.499 418.866L345.007 410.983L344.455 412.905L371.948 420.788L372.499 418.866ZM345.692 412.219L354.072 382.997L352.149 382.446L343.77 411.668L345.692 412.219ZM352.835 383.683L452.614 412.294L453.165 410.371L353.386 381.76L352.835 383.683ZM451.928 411.057L443.549 440.279L445.471 440.831L453.851 411.608L451.928 411.057ZM444.786 439.594L417.294 431.71L416.742 433.633L444.234 441.516L444.786 439.594ZM416.057 432.396L386.508 535.443L388.431 535.995L417.979 432.947L416.057 432.396ZM387.745 534.758L342.951 521.913L342.399 523.836L387.194 536.68L387.745 534.758ZM343.636 523.15L373.184 420.103L371.262 419.551L341.714 522.599L343.636 523.15Z" fill="white" fill-opacity="0.4"/>
</svg>
