<svg width="647" height="585" viewBox="0 0 647 585" fill="none" xmlns="http://www.w3.org/2000/svg">
<path d="M116.418 0.675023L116.693 -0.286239L115.732 -0.561876L115.456 0.399386L116.418 0.675023ZM207.545 26.8054L208.507 27.0811L208.782 26.1198L207.821 25.8442L207.545 26.8054ZM199.166 56.0278L198.89 56.9891L199.852 57.2647L200.127 56.3034L199.166 56.0278ZM149.373 41.7498L149.648 40.7885L148.687 40.5129L148.411 41.4741L149.373 41.7498ZM141.71 68.4729L140.749 68.1972L140.473 69.1585L141.434 69.4341L141.71 68.4729ZM187.85 81.7034L188.812 81.9791L189.087 81.0178L188.126 80.7422L187.85 81.7034ZM180.904 105.927L180.629 106.888L181.59 107.164L181.866 106.203L180.904 105.927ZM134.764 92.6966L135.039 91.7354L134.078 91.4597L133.803 92.421L134.764 92.6966ZM119.824 144.797L119.549 145.758L120.51 146.034L120.785 145.073L119.824 144.797ZM78.49 132.945L77.5287 132.669L77.2531 133.63L78.2143 133.906L78.49 132.945ZM116.142 1.63628L207.27 27.7667L207.821 25.8442L116.693 -0.286239L116.142 1.63628ZM206.584 26.5298L198.205 55.7522L200.127 56.3034L208.507 27.0811L206.584 26.5298ZM199.442 55.0665L149.648 40.7885L149.097 42.711L198.89 56.9891L199.442 55.0665ZM148.411 41.4741L140.749 68.1972L142.671 68.7485L150.334 42.0254L148.411 41.4741ZM141.434 69.4341L187.575 82.6647L188.126 80.7422L141.985 67.5116L141.434 69.4341ZM186.889 81.4278L179.943 105.652L181.866 106.203L188.812 81.9791L186.889 81.4278ZM181.18 104.966L135.039 91.7354L134.488 93.6579L180.629 106.888L181.18 104.966ZM133.803 92.421L118.863 144.521L120.785 145.073L135.725 92.9723L133.803 92.421ZM120.1 143.836L78.7656 131.983L78.2143 133.906L119.549 145.758L120.1 143.836ZM79.4512 133.22L117.379 0.95066L115.456 0.399386L77.5287 132.669L79.4512 133.22ZM245.61 37.7202L245.885 36.759L245.154 36.5492L244.757 37.1987L245.61 37.7202ZM304.054 54.479L305.054 54.4767L305.053 53.7249L304.33 53.5177L304.054 54.479ZM304.385 197.719L304.109 198.68L305.388 199.047L305.385 197.717L304.385 197.719ZM259.206 184.764L258.209 184.679L258.14 185.499L258.93 185.725L259.206 184.764ZM261.484 157.953L262.48 158.038L262.55 157.219L261.76 156.992L261.484 157.953ZM227.263 148.141L227.539 147.179L226.766 146.958L226.383 147.665L227.263 148.141ZM214.411 171.919L214.135 172.881L214.908 173.102L215.291 172.395L214.411 171.919ZM171.154 159.516L170.301 158.994L169.616 160.115L170.878 160.477L171.154 159.516ZM263.651 132.983L263.375 133.945L264.566 134.286L264.648 133.05L263.651 132.983ZM267.748 71.5321L268.745 71.5986L266.871 71.0514L267.748 71.5321ZM238.081 125.651L237.204 125.171L236.603 126.268L237.805 126.613L238.081 125.651ZM245.334 38.6815L303.779 55.4403L304.33 53.5177L245.885 36.759L245.334 38.6815ZM303.054 54.4813L303.385 197.721L305.385 197.717L305.054 54.4767L303.054 54.4813ZM304.661 196.758L259.481 183.803L258.93 185.725L304.109 198.68L304.661 196.758ZM260.202 184.849L262.48 158.038L260.488 157.869L258.209 184.679L260.202 184.849ZM261.76 156.992L227.539 147.179L226.987 149.102L261.208 158.915L261.76 156.992ZM226.383 147.665L213.531 171.444L215.291 172.395L228.143 148.616L226.383 147.665ZM214.687 170.958L171.43 158.554L170.878 160.477L214.135 172.881L214.687 170.958ZM172.007 160.037L246.463 38.2418L244.757 37.1987L170.301 158.994L172.007 160.037ZM264.648 133.05L268.745 71.5986L266.75 71.4655L262.653 132.917L264.648 133.05ZM266.871 71.0514L237.204 125.171L238.958 126.132L268.624 72.0127L266.871 71.0514ZM237.805 126.613L263.375 133.945L263.926 132.022L238.357 124.69L237.805 126.613ZM355.043 69.0998L355.319 68.1386L354.358 67.8629L354.082 68.8242L355.043 69.0998ZM393.686 80.1805L394.623 79.8311L394.447 79.3583L393.962 79.2192L393.686 80.1805ZM425.911 166.611L424.974 166.96L426.035 169.806L426.872 166.887L425.911 166.611ZM446.363 95.2854L446.639 94.3241L445.678 94.0485L445.402 95.0097L446.363 95.2854ZM480.776 105.153L481.738 105.429L482.013 104.468L481.052 104.192L480.776 105.153ZM442.849 237.423L442.573 238.384L443.534 238.66L443.81 237.698L442.849 237.423ZM404.398 226.397L403.469 226.766L403.65 227.223L404.123 227.359L404.398 226.397ZM371.072 142.356L372.002 141.987L370.92 139.259L370.111 142.08L371.072 142.356ZM351.337 211.182L351.061 212.143L352.022 212.419L352.298 211.458L351.337 211.182ZM317.116 201.369L316.154 201.094L315.879 202.055L316.84 202.331L317.116 201.369ZM354.768 70.0611L393.41 81.1417L393.962 79.2192L355.319 68.1386L354.768 70.0611ZM392.749 80.5298L424.974 166.96L426.848 166.262L394.623 79.8311L392.749 80.5298ZM426.872 166.887L447.324 95.561L445.402 95.0097L424.95 166.335L426.872 166.887ZM446.088 96.2466L480.501 106.114L481.052 104.192L446.639 94.3241L446.088 96.2466ZM479.815 104.878L441.887 237.147L443.81 237.698L481.738 105.429L479.815 104.878ZM443.124 236.462L404.674 225.436L404.123 227.359L442.573 238.384L443.124 236.462ZM405.328 226.029L372.002 141.987L370.143 142.724L403.469 226.766L405.328 226.029ZM370.111 142.08L350.375 210.906L352.298 211.458L372.033 142.631L370.111 142.08ZM351.612 210.221L317.391 200.408L316.84 202.331L351.061 212.143L351.612 210.221ZM318.077 201.645L356.005 69.3755L354.082 68.8242L316.154 201.094L318.077 201.645ZM174.034 444.135L173.307 444.822L173.312 444.827L173.317 444.832L174.034 444.135ZM156.4 412.031L155.428 412.265L155.43 412.272L155.431 412.279L156.4 412.031ZM176.44 341.419L177.143 342.13L176.44 341.419ZM207.72 323.757L207.96 324.728L207.969 324.725L207.72 323.757ZM264.578 332.987L265.079 332.121L264.578 332.987ZM279.649 345.006L280.549 345.443L280.837 344.849L280.403 344.35L279.649 345.006ZM265.914 373.317L265.318 374.12L266.287 374.839L266.813 373.754L265.914 373.317ZM216.171 363.215L216.685 364.073L216.694 364.067L216.171 363.215ZM201.892 414.464L201.002 414.921L201.007 414.93L201.012 414.94L201.892 414.464ZM235.198 432.545L235.259 431.547L235.198 432.545ZM249.1 431.954L250.094 432.058L250.223 430.824L248.99 430.96L249.1 431.954ZM245.773 463.874L246.021 464.842L246.695 464.669L246.767 463.977L245.773 463.874ZM206.709 462.243C194.05 458.613 183.405 452.343 174.751 443.438L173.317 444.832C182.228 454.002 193.183 460.445 206.157 464.165L206.709 462.243ZM174.761 443.449C166.261 434.444 160.466 423.894 157.369 411.783L155.431 412.279C158.611 424.715 164.572 435.568 173.307 444.822L174.761 443.449ZM157.372 411.797C154.441 399.608 154.784 387.193 158.414 374.533L156.491 373.982C152.771 386.957 152.412 399.723 155.428 412.265L157.372 411.797ZM158.414 374.533C162.12 361.611 168.366 350.818 177.143 342.13L175.736 340.708C166.695 349.658 160.283 360.759 156.491 373.982L158.414 374.533ZM177.143 342.13C185.927 333.435 196.195 327.639 207.96 324.728L207.48 322.786C195.357 325.786 184.771 331.765 175.736 340.708L177.143 342.13ZM207.969 324.725C219.764 321.689 231.981 321.975 244.641 325.605L245.192 323.683C232.218 319.962 219.637 319.657 207.471 322.789L207.969 324.725ZM244.641 325.605C251.484 327.568 257.962 330.316 264.078 333.853L265.079 332.121C258.821 328.503 252.191 325.69 245.192 323.683L244.641 325.605ZM264.078 333.853C270.189 337.386 275.121 341.326 278.895 345.663L280.403 344.35C276.457 339.815 271.342 335.742 265.079 332.121L264.078 333.853ZM278.749 344.57L265.014 372.881L266.813 373.754L280.549 345.443L278.749 344.57ZM266.509 372.514C258.207 366.358 250.265 362.172 242.685 359.999L242.134 361.921C249.421 364.011 257.149 368.063 265.318 374.12L266.509 372.514ZM242.685 359.999C232.235 357.002 223.184 357.736 215.648 362.363L216.694 364.067C223.635 359.806 232.076 359.037 242.134 361.921L242.685 359.999ZM215.657 362.357C208.166 366.846 202.851 374.838 199.611 386.138L201.534 386.69C204.688 375.689 209.772 368.215 216.685 364.073L215.657 362.357ZM199.611 386.138C196.438 397.203 196.852 406.829 201.002 414.921L202.782 414.008C198.925 406.488 198.459 397.413 201.534 386.69L199.611 386.138ZM201.012 414.94C205.337 422.943 212.865 428.43 223.441 431.463L223.992 429.54C213.806 426.619 206.784 421.414 202.772 413.989L201.012 414.94ZM223.441 431.463C227.476 432.62 231.376 433.315 235.138 433.543L235.259 431.547C231.659 431.329 227.904 430.662 223.992 429.54L223.441 431.463ZM235.138 433.543C238.897 433.771 243.592 433.569 249.209 432.948L248.99 430.96C243.434 431.574 238.862 431.766 235.259 431.547L235.138 433.543ZM248.105 431.85L244.778 463.77L246.767 463.977L250.094 432.058L248.105 431.85ZM245.524 462.905C232.675 466.199 219.743 465.98 206.709 462.243L206.157 464.165C219.526 467.999 232.82 468.227 246.021 464.842L245.524 462.905ZM298.98 343.268L299.256 342.306L298.295 342.031L298.019 342.992L298.98 343.268ZM342.237 355.671L343.198 355.947L343.474 354.986L342.513 354.71L342.237 355.671ZM327.132 408.348L326.171 408.073L325.895 409.034L326.857 409.31L327.132 408.348ZM368.082 420.091L367.806 421.052L368.768 421.327L369.043 420.366L368.082 420.091ZM383.187 367.413L383.463 366.452L382.501 366.176L382.226 367.138L383.187 367.413ZM426.636 379.872L427.597 380.148L427.873 379.187L426.912 378.911L426.636 379.872ZM388.708 512.142L388.433 513.103L389.394 513.379L389.67 512.417L388.708 512.142ZM345.259 499.683L344.298 499.407L344.022 500.369L344.984 500.644L345.259 499.683ZM360.144 447.775L361.105 448.051L361.381 447.089L360.419 446.814L360.144 447.775ZM319.194 436.033L319.47 435.071L318.508 434.796L318.233 435.757L319.194 436.033ZM304.309 487.941L304.034 488.902L304.995 489.178L305.271 488.216L304.309 487.941ZM261.053 475.537L260.091 475.262L259.816 476.223L260.777 476.498L261.053 475.537ZM298.705 344.229L341.962 356.633L342.513 354.71L299.256 342.306L298.705 344.229ZM341.276 355.396L326.171 408.073L328.094 408.624L343.198 355.947L341.276 355.396ZM326.857 409.31L367.806 421.052L368.358 419.129L327.408 407.387L326.857 409.31ZM369.043 420.366L384.148 367.689L382.226 367.138L367.121 419.815L369.043 420.366ZM382.911 368.375L426.36 380.833L426.912 378.911L383.463 366.452L382.911 368.375ZM425.675 379.597L387.747 511.866L389.67 512.417L427.597 380.148L425.675 379.597ZM388.984 511.181L345.535 498.722L344.984 500.644L388.433 513.103L388.984 511.181ZM346.22 499.959L361.105 448.051L359.182 447.499L344.298 499.407L346.22 499.959ZM360.419 446.814L319.47 435.071L318.918 436.994L359.868 448.736L360.419 446.814ZM318.233 435.757L303.348 487.665L305.271 488.216L320.155 436.308L318.233 435.757ZM304.585 486.98L261.328 474.576L260.777 476.498L304.034 488.902L304.585 486.98ZM262.014 475.813L299.942 343.543L298.019 342.992L260.091 475.262L262.014 475.813ZM476.611 394.202L476.887 393.241L476.155 393.031L475.758 393.681L476.611 394.202ZM535.056 410.961L536.056 410.959L536.054 410.207L535.331 410L535.056 410.961ZM535.386 554.201L535.111 555.162L536.389 555.529L536.386 554.199L535.386 554.201ZM490.207 541.246L489.211 541.161L489.141 541.981L489.931 542.207L490.207 541.246ZM492.485 514.435L493.482 514.52L493.551 513.701L492.761 513.474L492.485 514.435ZM458.264 504.623L458.54 503.662L457.767 503.44L457.385 504.147L458.264 504.623ZM445.412 528.401L445.137 529.363L445.91 529.584L446.292 528.877L445.412 528.401ZM402.155 515.998L401.302 515.476L400.617 516.597L401.88 516.959L402.155 515.998ZM494.652 489.465L494.376 490.427L495.567 490.768L495.65 489.532L494.652 489.465ZM498.749 428.014L499.747 428.081L497.872 427.533L498.749 428.014ZM469.082 482.133L468.205 481.653L467.604 482.75L468.807 483.095L469.082 482.133ZM476.335 395.164L534.78 411.922L535.331 410L476.887 393.241L476.335 395.164ZM534.056 410.963L534.386 554.203L536.386 554.199L536.056 410.959L534.056 410.963ZM535.662 553.24L490.483 540.285L489.931 542.207L535.111 555.162L535.662 553.24ZM491.203 541.331L493.482 514.52L491.489 514.351L489.211 541.161L491.203 541.331ZM492.761 513.474L458.54 503.662L457.989 505.584L492.21 515.397L492.761 513.474ZM457.385 504.147L444.532 527.926L446.292 528.877L459.144 505.098L457.385 504.147ZM445.688 527.44L402.431 515.036L401.88 516.959L445.137 529.363L445.688 527.44ZM403.009 516.519L477.464 394.724L475.758 393.681L401.302 515.476L403.009 516.519ZM495.65 489.532L499.747 428.081L497.751 427.948L493.654 489.399L495.65 489.532ZM497.872 427.533L468.205 481.653L469.959 482.614L499.626 428.495L497.872 427.533ZM468.807 483.095L494.376 490.427L494.927 488.504L469.358 481.172L468.807 483.095ZM588.661 457.957L589.623 458.233L589.898 457.272L588.937 456.996L588.661 457.957ZM561.169 450.074L560.208 449.798L559.932 450.76L560.893 451.035L561.169 450.074ZM569.548 420.852L569.824 419.89L568.863 419.615L568.587 420.576L569.548 420.852ZM669.328 449.463L670.289 449.739L670.564 448.777L669.603 448.502L669.328 449.463ZM660.948 478.685L660.672 479.646L661.634 479.922L661.909 478.961L660.948 478.685ZM633.456 470.802L633.732 469.841L632.77 469.565L632.495 470.526L633.456 470.802ZM603.908 573.849L603.632 574.811L604.593 575.086L604.869 574.125L603.908 573.849ZM559.113 561.005L558.152 560.729L557.876 561.69L558.837 561.966L559.113 561.005ZM588.937 456.996L561.445 449.113L560.893 451.035L588.386 458.919L588.937 456.996ZM562.13 450.35L570.51 421.127L568.587 420.576L560.208 449.798L562.13 450.35ZM569.273 421.813L669.052 450.424L669.603 448.502L569.824 419.89L569.273 421.813ZM668.366 449.187L659.987 478.41L661.909 478.961L670.289 449.739L668.366 449.187ZM661.224 477.724L633.732 469.841L633.18 471.763L660.672 479.646L661.224 477.724ZM632.495 470.526L602.946 573.574L604.869 574.125L634.417 471.078L632.495 470.526ZM604.183 572.888L559.389 560.043L558.837 561.966L603.632 574.811L604.183 572.888ZM560.074 561.28L589.623 458.233L587.7 457.682L558.152 560.729L560.074 561.28Z" fill="white" fill-opacity="0.41"/>
</svg>
