<svg width="727" height="391" viewBox="0 0 727 391" fill="none" xmlns="http://www.w3.org/2000/svg">
<path d="M39.1484 3.67502L39.424 2.71376L38.4628 2.43812L38.1871 3.39939L39.1484 3.67502ZM130.276 29.8054L131.237 30.0811L131.513 29.1198L130.552 28.8442L130.276 29.8054ZM121.897 59.0278L121.621 59.9891L122.582 60.2647L122.858 59.3034L121.897 59.0278ZM72.1033 44.7498L72.3789 43.7885L71.4176 43.5129L71.142 44.4741L72.1033 44.7498ZM64.4405 71.4729L63.4793 71.1972L63.2036 72.1585L64.1649 72.4341L64.4405 71.4729ZM110.581 84.7034L111.542 84.9791L111.818 84.0178L110.857 83.7422L110.581 84.7034ZM103.635 108.927L103.359 109.888L104.321 110.164L104.596 109.203L103.635 108.927ZM57.4945 95.6966L57.7701 94.7354L56.8089 94.4597L56.5332 95.421L57.4945 95.6966ZM42.5549 147.797L42.2793 148.758L43.2406 149.034L43.5162 148.073L42.5549 147.797ZM1.22068 135.945L0.259422 135.669L-0.0162149 136.63L0.945047 136.906L1.22068 135.945ZM38.8727 4.63628L130 30.7667L130.552 28.8442L39.424 2.71376L38.8727 4.63628ZM129.315 29.5298L120.935 58.7522L122.858 59.3034L131.237 30.0811L129.315 29.5298ZM122.172 58.0665L72.3789 43.7885L71.8276 45.711L121.621 59.9891L122.172 58.0665ZM71.142 44.4741L63.4793 71.1972L65.4018 71.7485L73.0645 45.0254L71.142 44.4741ZM64.1649 72.4341L110.305 85.6647L110.857 83.7422L64.7162 70.5116L64.1649 72.4341ZM109.62 84.4278L102.674 108.652L104.596 109.203L111.542 84.9791L109.62 84.4278ZM103.911 107.966L57.7701 94.7354L57.2188 96.6579L103.359 109.888L103.911 107.966ZM56.5332 95.421L41.5937 147.521L43.5162 148.073L58.4557 95.9723L56.5332 95.421ZM42.8306 146.836L1.49632 134.983L0.945047 136.906L42.2793 148.758L42.8306 146.836ZM2.18195 136.22L40.1096 3.95066L38.1871 3.39939L0.259422 135.669L2.18195 136.22ZM168.34 40.7202L168.616 39.759L167.884 39.5492L167.487 40.1987L168.34 40.7202ZM226.785 57.479L227.785 57.4767L227.783 56.7249L227.061 56.5177L226.785 57.479ZM227.116 200.719L226.84 201.68L228.119 202.047L228.116 200.717L227.116 200.719ZM181.936 187.764L180.94 187.679L180.87 188.499L181.661 188.725L181.936 187.764ZM184.215 160.953L185.211 161.038L185.281 160.219L184.49 159.992L184.215 160.953ZM149.994 151.141L150.269 150.179L149.496 149.958L149.114 150.665L149.994 151.141ZM137.142 174.919L136.866 175.881L137.639 176.102L138.021 175.395L137.142 174.919ZM93.8848 162.516L93.0316 161.994L92.3465 163.115L93.6092 163.477L93.8848 162.516ZM186.381 135.983L186.106 136.945L187.297 137.286L187.379 136.05L186.381 135.983ZM190.478 74.5321L191.476 74.5986L189.601 74.0514L190.478 74.5321ZM160.812 128.651L159.935 128.171L159.333 129.268L160.536 129.613L160.812 128.651ZM168.065 41.6815L226.51 58.4403L227.061 56.5177L168.616 39.759L168.065 41.6815ZM225.785 57.4813L226.116 200.721L228.116 200.717L227.785 57.4767L225.785 57.4813ZM227.391 199.758L182.212 186.803L181.661 188.725L226.84 201.68L227.391 199.758ZM182.933 187.849L185.211 161.038L183.218 160.869L180.94 187.679L182.933 187.849ZM184.49 159.992L150.269 150.179L149.718 152.102L183.939 161.915L184.49 159.992ZM149.114 150.665L136.262 174.444L138.021 175.395L150.873 151.616L149.114 150.665ZM137.417 173.958L94.1604 161.554L93.6092 163.477L136.866 175.881L137.417 173.958ZM94.738 163.037L169.194 41.2418L167.487 40.1987L93.0316 161.994L94.738 163.037ZM187.379 136.05L191.476 74.5986L189.48 74.4655L185.383 135.917L187.379 136.05ZM189.601 74.0514L159.935 128.171L161.689 129.132L191.355 75.0127L189.601 74.0514ZM160.536 129.613L186.106 136.945L186.657 135.022L161.087 127.69L160.536 129.613ZM277.774 72.0998L278.05 71.1386L277.088 70.8629L276.813 71.8242L277.774 72.0998ZM316.417 83.1805L317.354 82.8311L317.177 82.3583L316.692 82.2192L316.417 83.1805ZM348.642 169.611L347.705 169.96L348.766 172.806L349.603 169.887L348.642 169.611ZM369.094 98.2854L369.37 97.3241L368.408 97.0485L368.133 98.0097L369.094 98.2854ZM403.507 108.153L404.468 108.429L404.744 107.468L403.783 107.192L403.507 108.153ZM365.579 240.423L365.304 241.384L366.265 241.66L366.541 240.698L365.579 240.423ZM327.129 229.397L326.199 229.766L326.381 230.223L326.853 230.359L327.129 229.397ZM293.803 145.356L294.733 144.987L293.651 142.259L292.842 145.08L293.803 145.356ZM274.067 214.182L273.792 215.143L274.753 215.419L275.029 214.458L274.067 214.182ZM239.846 204.369L238.885 204.094L238.609 205.055L239.571 205.331L239.846 204.369ZM277.498 73.0611L316.141 84.1417L316.692 82.2192L278.05 71.1386L277.498 73.0611ZM315.48 83.5298L347.705 169.96L349.579 169.262L317.354 82.8311L315.48 83.5298ZM349.603 169.887L370.055 98.561L368.133 98.0097L347.68 169.335L349.603 169.887ZM368.818 99.2466L403.231 109.114L403.783 107.192L369.37 97.3241L368.818 99.2466ZM402.546 107.878L364.618 240.147L366.541 240.698L404.468 108.429L402.546 107.878ZM365.855 239.462L327.405 228.436L326.853 230.359L365.304 241.384L365.855 239.462ZM328.059 229.029L294.733 144.987L292.873 145.724L326.199 229.766L328.059 229.029ZM292.842 145.08L273.106 213.906L275.029 214.458L294.764 145.631L292.842 145.08ZM274.343 213.221L240.122 203.408L239.571 205.331L273.792 215.143L274.343 213.221ZM240.808 204.645L278.735 72.3755L276.813 71.8242L238.885 204.094L240.808 204.645ZM419.616 249.468L418.888 250.154L418.893 250.159L418.898 250.164L419.616 249.468ZM401.982 217.363L401.009 217.597L401.011 217.604L401.013 217.611L401.982 217.363ZM422.021 146.752L422.725 147.462L422.021 146.752ZM453.301 129.089L453.541 130.06L453.55 130.058L453.301 129.089ZM510.16 138.319L510.66 137.454L510.16 138.319ZM525.23 150.339L526.13 150.775L526.419 150.181L525.985 149.682L525.23 150.339ZM511.495 178.65L510.899 179.453L511.868 180.171L512.395 179.086L511.495 178.65ZM461.752 168.547L462.266 169.405L462.276 169.4L461.752 168.547ZM447.473 219.797L446.583 220.253L446.588 220.263L446.593 220.272L447.473 219.797ZM480.78 237.878L480.84 236.88L480.78 237.878ZM494.681 237.287L495.676 237.39L495.804 236.156L494.571 236.293L494.681 237.287ZM491.354 269.206L491.602 270.175L492.276 270.002L492.349 269.31L491.354 269.206ZM452.29 267.575C439.631 263.945 428.986 257.676 420.333 248.771L418.898 250.164C427.81 259.334 438.764 265.778 451.739 269.498L452.29 267.575ZM420.343 248.781C411.843 239.777 406.047 229.227 402.95 217.116L401.013 217.611C404.193 230.048 410.153 240.9 418.888 250.154L420.343 248.781ZM402.954 217.13C400.023 204.94 400.365 192.525 403.995 179.866L402.073 179.315C398.352 192.289 397.993 205.056 401.009 217.597L402.954 217.13ZM403.995 179.866C407.701 166.943 413.947 156.151 422.725 147.462L421.318 146.041C412.276 154.991 405.865 166.091 402.073 179.315L403.995 179.866ZM422.725 147.462C431.508 138.767 441.776 132.972 453.541 130.06L453.061 128.119C440.938 131.118 430.353 137.097 421.318 146.041L422.725 147.462ZM453.55 130.058C465.345 127.022 477.563 127.308 490.222 130.938L490.773 129.015C477.799 125.295 465.219 124.989 453.052 128.121L453.55 130.058ZM490.222 130.938C497.065 132.9 503.543 135.649 509.659 139.185L510.66 137.454C504.402 133.835 497.772 131.022 490.773 129.015L490.222 130.938ZM509.659 139.185C515.77 142.718 520.702 146.659 524.476 150.995L525.985 149.682C522.038 145.148 516.923 141.075 510.66 137.454L509.659 139.185ZM524.331 149.902L510.595 178.213L512.395 179.086L526.13 150.775L524.331 149.902ZM512.09 177.846C503.788 171.69 495.846 167.504 488.266 165.331L487.715 167.253C495.003 169.343 502.73 173.396 510.899 179.453L512.09 177.846ZM488.266 165.331C477.817 162.335 468.765 163.069 461.229 167.695L462.276 169.4C469.217 165.139 477.657 164.369 487.715 167.253L488.266 165.331ZM461.238 167.69C453.748 172.178 448.433 180.17 445.192 191.471L447.115 192.022C450.269 181.021 455.354 173.547 462.266 169.405L461.238 167.69ZM445.192 191.471C442.02 202.536 442.433 212.161 446.583 220.253L448.363 219.34C444.506 211.821 444.04 202.746 447.115 192.022L445.192 191.471ZM446.593 220.272C450.918 228.276 458.446 233.762 469.022 236.795L469.574 234.873C459.387 231.951 452.365 226.747 448.353 219.321L446.593 220.272ZM469.022 236.795C473.058 237.952 476.957 238.648 480.719 238.876L480.84 236.88C477.24 236.661 473.485 235.994 469.574 234.873L469.022 236.795ZM480.719 238.876C484.478 239.104 489.174 238.901 494.791 238.28L494.571 236.293C489.015 236.907 484.443 237.098 480.84 236.88L480.719 238.876ZM493.686 237.183L490.359 269.102L492.349 269.31L495.676 237.39L493.686 237.183ZM491.106 268.237C478.257 271.531 465.324 271.313 452.29 267.575L451.739 269.498C465.107 273.331 478.401 273.559 491.602 270.175L491.106 268.237ZM544.562 148.6L544.837 147.639L543.876 147.363L543.6 148.324L544.562 148.6ZM587.818 161.004L588.78 161.279L589.055 160.318L588.094 160.042L587.818 161.004ZM572.714 213.681L571.752 213.405L571.477 214.366L572.438 214.642L572.714 213.681ZM613.663 225.423L613.388 226.384L614.349 226.66L614.625 225.699L613.663 225.423ZM628.768 172.746L629.044 171.785L628.083 171.509L627.807 172.47L628.768 172.746ZM672.217 185.205L673.179 185.48L673.454 184.519L672.493 184.243L672.217 185.205ZM634.29 317.474L634.014 318.435L634.975 318.711L635.251 317.75L634.29 317.474ZM590.841 305.015L589.879 304.74L589.604 305.701L590.565 305.977L590.841 305.015ZM605.725 253.107L606.686 253.383L606.962 252.422L606.001 252.146L605.725 253.107ZM564.775 241.365L565.051 240.404L564.09 240.128L563.814 241.089L564.775 241.365ZM549.891 293.273L549.615 294.235L550.576 294.51L550.852 293.549L549.891 293.273ZM506.634 280.87L505.673 280.594L505.397 281.555L506.358 281.831L506.634 280.87ZM544.286 149.561L587.543 161.965L588.094 160.042L544.837 147.639L544.286 149.561ZM586.857 160.728L571.752 213.405L573.675 213.956L588.78 161.279L586.857 160.728ZM572.438 214.642L613.388 226.384L613.939 224.462L572.989 212.72L572.438 214.642ZM614.625 225.699L629.729 173.021L627.807 172.47L612.702 225.147L614.625 225.699ZM628.493 173.707L671.942 186.166L672.493 184.243L629.044 171.785L628.493 173.707ZM671.256 184.929L633.328 317.199L635.251 317.75L673.179 185.48L671.256 184.929ZM634.565 316.513L591.116 304.054L590.565 305.977L634.014 318.435L634.565 316.513ZM591.802 305.291L606.686 253.383L604.764 252.832L589.879 304.74L591.802 305.291ZM606.001 252.146L565.051 240.404L564.5 242.326L605.449 254.069L606.001 252.146ZM563.814 241.089L548.93 292.998L550.852 293.549L565.736 241.641L563.814 241.089ZM550.166 292.312L506.91 279.908L506.358 281.831L549.615 294.235L550.166 292.312ZM507.595 281.145L545.523 148.876L543.6 148.324L505.673 280.594L507.595 281.145ZM722.192 199.535L722.468 198.573L721.736 198.364L721.339 199.013L722.192 199.535ZM780.637 216.293L781.637 216.291L781.635 215.539L780.913 215.332L780.637 216.293ZM780.968 359.533L780.692 360.495L781.971 360.861L781.968 359.531L780.968 359.533ZM735.788 346.578L734.792 346.494L734.722 347.313L735.513 347.54L735.788 346.578ZM738.067 319.768L739.063 319.853L739.133 319.033L738.342 318.807L738.067 319.768ZM703.846 309.955L704.121 308.994L703.348 308.772L702.966 309.48L703.846 309.955ZM690.993 333.734L690.718 334.695L691.491 334.917L691.873 334.209L690.993 333.734ZM647.737 321.33L646.884 320.809L646.198 321.929L647.461 322.291L647.737 321.33ZM740.233 294.798L739.958 295.759L741.149 296.101L741.231 294.864L740.233 294.798ZM744.33 233.347L745.328 233.413L743.453 232.866L744.33 233.347ZM714.664 287.466L713.787 286.985L713.185 288.082L714.388 288.427L714.664 287.466ZM721.917 200.496L780.361 217.255L780.913 215.332L722.468 198.573L721.917 200.496ZM779.637 216.296L779.968 359.536L781.968 359.531L781.637 216.291L779.637 216.296ZM781.243 358.572L736.064 345.617L735.513 347.54L780.692 360.495L781.243 358.572ZM736.785 346.663L739.063 319.853L737.07 319.683L734.792 346.494L736.785 346.663ZM738.342 318.807L704.121 308.994L703.57 310.916L737.791 320.729L738.342 318.807ZM702.966 309.48L690.114 333.258L691.873 334.209L704.725 310.431L702.966 309.48ZM691.269 332.773L648.012 320.369L647.461 322.291L690.718 334.695L691.269 332.773ZM648.59 321.852L723.046 200.056L721.339 199.013L646.884 320.809L648.59 321.852ZM741.231 294.864L745.328 233.413L743.332 233.28L739.235 294.731L741.231 294.864ZM743.453 232.866L713.787 286.985L715.54 287.946L745.207 233.827L743.453 232.866ZM714.388 288.427L739.958 295.759L740.509 293.837L714.939 286.505L714.388 288.427ZM834.243 263.29L835.204 263.565L835.479 262.604L834.518 262.328L834.243 263.29ZM806.75 255.406L805.789 255.131L805.514 256.092L806.475 256.368L806.75 255.406ZM815.13 226.184L815.405 225.223L814.444 224.947L814.169 225.908L815.13 226.184ZM914.909 254.795L915.87 255.071L916.146 254.11L915.184 253.834L914.909 254.795ZM906.529 284.018L906.254 284.979L907.215 285.255L907.491 284.293L906.529 284.018ZM879.037 276.134L879.313 275.173L878.352 274.898L878.076 275.859L879.037 276.134ZM849.489 379.182L849.213 380.143L850.175 380.419L850.45 379.457L849.489 379.182ZM804.694 366.337L803.733 366.061L803.457 367.023L804.419 367.298L804.694 366.337ZM834.518 262.328L807.026 254.445L806.475 256.368L833.967 264.251L834.518 262.328ZM807.712 255.682L816.091 226.46L814.169 225.908L805.789 255.131L807.712 255.682ZM814.854 227.145L914.633 255.757L915.184 253.834L815.405 225.223L814.854 227.145ZM913.948 254.52L905.568 283.742L907.491 284.293L915.87 255.071L913.948 254.52ZM906.805 283.056L879.313 275.173L878.762 277.096L906.254 284.979L906.805 283.056ZM878.076 275.859L848.528 378.906L850.45 379.457L879.999 276.41L878.076 275.859ZM849.765 378.22L804.97 365.376L804.419 367.298L849.213 380.143L849.765 378.22ZM805.656 366.613L835.204 263.565L833.281 263.014L803.733 366.061L805.656 366.613Z" fill="white" fill-opacity="0.35"/>
</svg>
