<svg width="729" height="355" viewBox="0 0 729 355" fill="none" xmlns="http://www.w3.org/2000/svg">
<path d="M-148.582 -32.325L-148.306 -33.2862L-149.268 -33.5619L-149.543 -32.6006L-148.582 -32.325ZM-57.4545 -6.19456L-56.4932 -5.91892L-56.2176 -6.88018L-57.1788 -7.15582L-57.4545 -6.19456ZM-65.8339 23.0278L-66.1095 23.9891L-65.1482 24.2647L-64.8726 23.3034L-65.8339 23.0278ZM-115.627 8.74978L-115.352 7.78852L-116.313 7.51288L-116.588 8.47415L-115.627 8.74978ZM-123.29 35.4729L-124.251 35.1972L-124.527 36.1585L-123.566 36.4341L-123.29 35.4729ZM-77.1494 48.7034L-76.1881 48.9791L-75.9125 48.0178L-76.8737 47.7422L-77.1494 48.7034ZM-84.0954 72.9272L-84.3711 73.8885L-83.4098 74.1641L-83.1342 73.2029L-84.0954 72.9272ZM-130.236 59.6966L-129.96 58.7354L-130.922 58.4597L-131.197 59.421L-130.236 59.6966ZM-145.176 111.797L-145.451 112.758L-144.49 113.034L-144.214 112.073L-145.176 111.797ZM-186.51 99.9446L-187.471 99.669L-187.747 100.63L-186.785 100.906L-186.51 99.9446ZM-148.858 -31.3637L-57.7301 -5.2333L-57.1788 -7.15582L-148.306 -33.2862L-148.858 -31.3637ZM-58.4157 -6.4702L-66.7951 22.7522L-64.8726 23.3034L-56.4932 -5.91892L-58.4157 -6.4702ZM-65.5582 22.0665L-115.352 7.78852L-115.903 9.71104L-66.1095 23.9891L-65.5582 22.0665ZM-116.588 8.47415L-124.251 35.1972L-122.329 35.7485L-114.666 9.02542L-116.588 8.47415ZM-123.566 36.4341L-77.425 49.6647L-76.8737 47.7422L-123.014 34.5116L-123.566 36.4341ZM-78.1106 48.4278L-85.0567 72.6516L-83.1342 73.2029L-76.1881 48.9791L-78.1106 48.4278ZM-83.8198 71.966L-129.96 58.7354L-130.512 60.6579L-84.3711 73.8885L-83.8198 71.966ZM-131.197 59.421L-146.137 111.521L-144.214 112.073L-129.275 59.9723L-131.197 59.421ZM-144.9 110.836L-186.234 98.9834L-186.785 100.906L-145.451 112.758L-144.9 110.836ZM-185.549 100.22L-147.621 -32.0493L-149.543 -32.6006L-187.471 99.669L-185.549 100.22ZM-19.39 4.72025L-19.1144 3.75899L-19.8462 3.54916L-20.2432 4.19867L-19.39 4.72025ZM39.0547 21.479L40.0547 21.4767L40.0529 20.7249L39.3303 20.5177L39.0547 21.479ZM39.3852 164.719L39.1096 165.68L40.3883 166.047L40.3852 164.717L39.3852 164.719ZM-5.7941 151.764L-6.79051 151.679L-6.86013 152.499L-6.06973 152.725L-5.7941 151.764ZM-3.51584 124.953L-2.51942 125.038L-2.44981 124.219L-3.24021 123.992L-3.51584 124.953ZM-37.7367 115.141L-37.4611 114.179L-38.2341 113.958L-38.6165 114.665L-37.7367 115.141ZM-50.5889 138.919L-50.8645 139.881L-50.0915 140.102L-49.7092 139.395L-50.5889 138.919ZM-93.8457 126.516L-94.6989 125.994L-95.384 127.115L-94.1213 127.477L-93.8457 126.516ZM-1.34921 99.9833L-1.62485 100.945L-0.433843 101.286L-0.351426 100.05L-1.34921 99.9833ZM2.74776 38.5321L3.74554 38.5986L1.87087 38.0514L2.74776 38.5321ZM-26.9188 92.6513L-27.7957 92.1707L-28.3971 93.2678L-27.1944 93.6126L-26.9188 92.6513ZM-19.6657 5.68151L38.779 22.4403L39.3303 20.5177L-19.1144 3.75899L-19.6657 5.68151ZM38.0547 21.4813L38.3852 164.721L40.3852 164.717L40.0547 21.4767L38.0547 21.4813ZM39.6608 163.758L-5.51846 150.803L-6.06973 152.725L39.1096 165.68L39.6608 163.758ZM-4.79768 151.849L-2.51942 125.038L-4.51224 124.869L-6.79051 151.679L-4.79768 151.849ZM-3.24021 123.992L-37.4611 114.179L-38.0124 116.102L-3.79148 125.915L-3.24021 123.992ZM-38.6165 114.665L-51.4686 138.444L-49.7092 139.395L-36.857 115.616L-38.6165 114.665ZM-50.3133 137.958L-93.57 125.554L-94.1213 127.477L-50.8645 139.881L-50.3133 137.958ZM-92.9925 127.037L-18.5368 5.24182L-20.2432 4.19867L-94.6989 125.994L-92.9925 127.037ZM-0.351426 100.05L3.74554 38.5986L1.74997 38.4655L-2.347 99.9168L-0.351426 100.05ZM1.87087 38.0514L-27.7957 92.1707L-26.0419 93.132L3.62465 39.0127L1.87087 38.0514ZM-27.1944 93.6126L-1.62485 100.945L-1.07357 99.022L-26.6431 91.6901L-27.1944 93.6126ZM90.0436 36.0998L90.3192 35.1386L89.358 34.8629L89.0823 35.8242L90.0436 36.0998ZM128.686 47.1805L129.623 46.8311L129.447 46.3583L128.962 46.2192L128.686 47.1805ZM160.911 133.611L159.974 133.96L161.035 136.806L161.872 133.887L160.911 133.611ZM181.363 62.2854L181.639 61.3241L180.678 61.0485L180.402 62.0097L181.363 62.2854ZM215.777 72.1532L216.738 72.4288L217.014 71.4676L216.052 71.1919L215.777 72.1532ZM177.849 204.423L177.573 205.384L178.535 205.66L178.81 204.698L177.849 204.423ZM139.398 193.397L138.469 193.766L138.65 194.223L139.123 194.359L139.398 193.397ZM106.072 109.356L107.002 108.987L105.92 106.259L105.111 109.08L106.072 109.356ZM86.3368 178.182L86.0612 179.143L87.0224 179.419L87.2981 178.458L86.3368 178.182ZM52.1159 168.369L51.1546 168.094L50.879 169.055L51.8403 169.331L52.1159 168.369ZM89.768 37.0611L128.411 48.1417L128.962 46.2192L90.3192 35.1386L89.768 37.0611ZM127.749 47.5298L159.974 133.96L161.848 133.262L129.623 46.8311L127.749 47.5298ZM161.872 133.887L182.325 62.561L180.402 62.0097L159.95 133.335L161.872 133.887ZM181.088 63.2466L215.501 73.1145L216.052 71.1919L181.639 61.3241L181.088 63.2466ZM214.815 71.8776L176.888 204.147L178.81 204.698L216.738 72.4288L214.815 71.8776ZM178.125 203.462L139.674 192.436L139.123 194.359L177.573 205.384L178.125 203.462ZM140.328 193.029L107.002 108.987L105.143 109.724L138.469 193.766L140.328 193.029ZM105.111 109.08L85.3756 177.906L87.2981 178.458L107.034 109.631L105.111 109.08ZM86.6125 177.221L52.3915 167.408L51.8403 169.331L86.0612 179.143L86.6125 177.221ZM53.0772 168.645L91.0049 36.3755L89.0823 35.8242L51.1546 168.094L53.0772 168.645ZM231.885 213.468L231.158 214.154L231.163 214.159L231.168 214.164L231.885 213.468ZM214.251 181.363L213.279 181.597L213.28 181.604L213.282 181.611L214.251 181.363ZM234.291 110.752L234.994 111.462L234.291 110.752ZM265.571 93.0893L265.811 94.0601L265.82 94.0578L265.571 93.0893ZM322.429 102.319L322.93 101.454L322.429 102.319ZM337.5 114.339L338.4 114.775L338.688 114.181L338.254 113.682L337.5 114.339ZM323.764 142.65L323.169 143.453L324.138 144.171L324.664 143.086L323.764 142.65ZM274.022 132.547L274.536 133.405L274.545 133.4L274.022 132.547ZM259.743 183.797L258.853 184.253L258.858 184.263L258.863 184.272L259.743 183.797ZM293.049 201.878L293.11 200.88L293.049 201.878ZM306.951 201.287L307.945 201.39L308.074 200.156L306.841 200.293L306.951 201.287ZM303.623 233.206L303.872 234.175L304.546 234.002L304.618 233.31L303.623 233.206ZM264.56 231.575C251.9 227.945 241.256 221.676 232.602 212.771L231.168 214.164C240.079 223.334 251.034 229.778 264.008 233.498L264.56 231.575ZM232.612 212.781C224.112 203.777 218.317 193.227 215.22 181.116L213.282 181.611C216.462 194.048 222.423 204.9 231.158 214.154L232.612 212.781ZM215.223 181.13C212.292 168.94 212.635 156.525 216.265 143.866L214.342 143.315C210.622 156.289 210.263 169.056 213.279 181.597L215.223 181.13ZM216.265 143.866C219.97 130.943 226.217 120.151 234.994 111.462L233.587 110.041C224.546 118.991 218.134 130.091 214.342 143.315L216.265 143.866ZM234.994 111.462C243.778 102.767 254.045 96.9715 265.811 94.0601L265.331 92.1186C253.208 95.1184 242.622 101.097 233.587 110.041L234.994 111.462ZM265.82 94.0578C277.615 91.0218 289.832 91.3077 302.491 94.9377L303.043 93.0152C290.069 89.2949 277.488 88.9893 265.321 92.1209L265.82 94.0578ZM302.491 94.9377C309.335 96.8999 315.813 99.6489 321.929 103.185L322.93 101.454C316.671 97.835 310.042 95.0221 303.043 93.0152L302.491 94.9377ZM321.929 103.185C328.04 106.718 332.972 110.659 336.746 114.995L338.254 113.682C334.308 109.148 329.192 105.075 322.93 101.454L321.929 103.185ZM336.6 113.902L322.865 142.213L324.664 143.086L338.4 114.775L336.6 113.902ZM324.36 141.846C316.057 135.69 308.115 131.504 300.536 129.331L299.984 131.253C307.272 133.343 315 137.396 323.169 143.453L324.36 141.846ZM300.536 129.331C290.086 126.335 281.035 127.069 273.499 131.695L274.545 133.4C281.486 129.139 289.927 128.369 299.984 131.253L300.536 129.331ZM273.508 131.69C266.017 136.178 260.702 144.17 257.462 155.471L259.384 156.022C262.539 145.021 267.623 137.547 274.536 133.405L273.508 131.69ZM257.462 155.471C254.289 166.536 254.703 176.161 258.853 184.253L260.632 183.34C256.776 175.821 256.309 166.746 259.384 156.022L257.462 155.471ZM258.863 184.272C263.188 192.276 270.716 197.762 281.292 200.795L281.843 198.873C271.656 195.951 264.634 190.747 260.622 183.321L258.863 184.272ZM281.292 200.795C285.327 201.952 289.226 202.648 292.988 202.876L293.11 200.88C289.51 200.661 285.755 199.994 281.843 198.873L281.292 200.795ZM292.988 202.876C296.748 203.104 301.443 202.901 307.06 202.28L306.841 200.293C301.285 200.907 296.713 201.098 293.11 200.88L292.988 202.876ZM305.956 201.183L302.629 233.102L304.618 233.31L307.945 201.39L305.956 201.183ZM303.375 232.237C290.526 235.531 277.594 235.313 264.56 231.575L264.008 233.498C277.377 237.331 290.671 237.559 303.872 234.175L303.375 232.237ZM356.831 112.6L357.107 111.639L356.146 111.363L355.87 112.324L356.831 112.6ZM400.088 125.004L401.049 125.279L401.325 124.318L400.364 124.042L400.088 125.004ZM384.983 177.681L384.022 177.405L383.746 178.366L384.707 178.642L384.983 177.681ZM425.933 189.423L425.657 190.384L426.618 190.66L426.894 189.699L425.933 189.423ZM441.038 136.746L441.313 135.785L440.352 135.509L440.076 136.47L441.038 136.746ZM484.487 149.205L485.448 149.48L485.724 148.519L484.762 148.243L484.487 149.205ZM446.559 281.474L446.283 282.435L447.245 282.711L447.52 281.75L446.559 281.474ZM403.11 269.015L402.149 268.74L401.873 269.701L402.834 269.977L403.11 269.015ZM417.994 217.107L418.956 217.383L419.231 216.422L418.27 216.146L417.994 217.107ZM377.045 205.365L377.32 204.404L376.359 204.128L376.083 205.089L377.045 205.365ZM362.16 257.273L361.885 258.235L362.846 258.51L363.122 257.549L362.16 257.273ZM318.904 244.87L317.942 244.594L317.667 245.555L318.628 245.831L318.904 244.87ZM356.556 113.561L399.812 125.965L400.364 124.042L357.107 111.639L356.556 113.561ZM399.127 124.728L384.022 177.405L385.944 177.956L401.049 125.279L399.127 124.728ZM384.707 178.642L425.657 190.384L426.208 188.462L385.259 176.72L384.707 178.642ZM426.894 189.699L441.999 137.021L440.076 136.47L424.972 189.147L426.894 189.699ZM440.762 137.707L484.211 150.166L484.762 148.243L441.313 135.785L440.762 137.707ZM483.526 148.929L445.598 281.199L447.52 281.75L485.448 149.48L483.526 148.929ZM446.835 280.513L403.386 268.054L402.834 269.977L446.283 282.435L446.835 280.513ZM404.071 269.291L418.956 217.383L417.033 216.832L402.149 268.74L404.071 269.291ZM418.27 216.146L377.32 204.404L376.769 206.326L417.719 218.069L418.27 216.146ZM376.083 205.089L361.199 256.998L363.122 257.549L378.006 205.641L376.083 205.089ZM362.436 256.312L319.179 243.908L318.628 245.831L361.885 258.235L362.436 256.312ZM319.865 245.145L357.793 112.876L355.87 112.324L317.942 244.594L319.865 245.145ZM534.462 163.535L534.738 162.573L534.006 162.364L533.609 163.013L534.462 163.535ZM592.907 180.293L593.907 180.291L593.905 179.539L593.182 179.332L592.907 180.293ZM593.237 323.533L592.961 324.495L594.24 324.861L594.237 323.531L593.237 323.533ZM548.058 310.578L547.061 310.494L546.992 311.313L547.782 311.54L548.058 310.578ZM550.336 283.768L551.333 283.853L551.402 283.033L550.612 282.807L550.336 283.768ZM516.115 273.955L516.391 272.994L515.618 272.772L515.235 273.48L516.115 273.955ZM503.263 297.734L502.987 298.695L503.76 298.917L504.143 298.209L503.263 297.734ZM460.006 285.33L459.153 284.809L458.468 285.929L459.731 286.291L460.006 285.33ZM552.503 258.798L552.227 259.759L553.418 260.101L553.5 258.864L552.503 258.798ZM556.6 197.347L557.597 197.413L555.723 196.866L556.6 197.347ZM526.933 251.466L526.056 250.985L525.455 252.082L526.658 252.427L526.933 251.466ZM534.186 164.496L592.631 181.255L593.182 179.332L534.738 162.573L534.186 164.496ZM591.907 180.296L592.237 323.536L594.237 323.531L593.907 180.291L591.907 180.296ZM593.513 322.572L548.333 309.617L547.782 311.54L592.961 324.495L593.513 322.572ZM549.054 310.663L551.333 283.853L549.34 283.683L547.061 310.494L549.054 310.663ZM550.612 282.807L516.391 272.994L515.84 274.916L550.06 284.729L550.612 282.807ZM515.235 273.48L502.383 297.258L504.143 298.209L516.995 274.431L515.235 273.48ZM503.539 296.773L460.282 284.369L459.731 286.291L502.987 298.695L503.539 296.773ZM460.859 285.852L535.315 164.056L533.609 163.013L459.153 284.809L460.859 285.852ZM553.5 258.864L557.597 197.413L555.602 197.28L551.505 258.731L553.5 258.864ZM555.723 196.866L526.056 250.985L527.81 251.946L557.477 197.827L555.723 196.866ZM526.658 252.427L552.227 259.759L552.778 257.837L527.209 250.505L526.658 252.427ZM646.512 227.29L647.473 227.565L647.749 226.604L646.788 226.328L646.512 227.29ZM619.02 219.406L618.059 219.131L617.783 220.092L618.744 220.368L619.02 219.406ZM627.399 190.184L627.675 189.223L626.714 188.947L626.438 189.908L627.399 190.184ZM727.178 218.795L728.14 219.071L728.415 218.11L727.454 217.834L727.178 218.795ZM718.799 248.018L718.523 248.979L719.485 249.255L719.76 248.293L718.799 248.018ZM691.307 240.134L691.583 239.173L690.621 238.898L690.346 239.859L691.307 240.134ZM661.759 343.182L661.483 344.143L662.444 344.419L662.72 343.457L661.759 343.182ZM616.964 330.337L616.003 330.061L615.727 331.023L616.688 331.298L616.964 330.337ZM646.788 226.328L619.296 218.445L618.744 220.368L646.236 228.251L646.788 226.328ZM619.981 219.682L628.361 190.46L626.438 189.908L618.059 219.131L619.981 219.682ZM627.124 191.145L726.903 219.757L727.454 217.834L627.675 189.223L627.124 191.145ZM726.217 218.52L717.838 247.742L719.76 248.293L728.14 219.071L726.217 218.52ZM719.075 247.056L691.583 239.173L691.031 241.096L718.523 248.979L719.075 247.056ZM690.346 239.859L660.797 342.906L662.72 343.457L692.268 240.41L690.346 239.859ZM662.034 342.22L617.239 329.376L616.688 331.298L661.483 344.143L662.034 342.22ZM617.925 330.613L647.473 227.565L645.551 227.014L616.003 330.061L617.925 330.613Z" fill="white" fill-opacity="0.35"/>
</svg>
