<svg width="90" height="90" viewBox="0 0 90 90" fill="none" xmlns="http://www.w3.org/2000/svg">
<path fill-rule="evenodd" clip-rule="evenodd" d="M45.0676 0.410739L45 0L44.9324 0.410739C41.125 0.596957 37.9707 16.4871 37.3415 37.3415C16.4871 37.9707 0.596957 41.125 0.410739 44.9323L0 45L0.410739 45.0677C0.596957 48.875 16.4871 52.0293 37.3415 52.6585C37.9707 73.5128 41.125 89.4029 44.9324 89.5892L45 90L45.0676 89.5892C48.8749 89.4029 52.0293 73.5128 52.6586 52.6585C73.5129 52.0293 89.4029 48.875 89.5892 45.0677L90 45L89.5892 44.9323C89.4029 41.125 73.5129 37.9707 52.6586 37.3415C52.0293 16.4871 48.8749 0.596957 45.0676 0.410739ZM44.5907 2.48461C44.2632 2.90314 43.8857 3.57041 43.4874 4.53675C42.6241 6.63155 41.8112 9.7616 41.1159 13.7505C40.0645 19.7819 39.3122 27.596 39.0102 36.3642L44.5907 2.48461ZM50.9897 36.3642L45.4093 2.48461C45.7368 2.90314 46.1143 3.57041 46.5126 4.53675C47.3758 6.63155 48.1887 9.7616 48.884 13.7505C49.9354 19.7819 50.6877 27.596 50.9897 36.3642ZM36.3639 39.0103C27.5958 39.3122 19.7818 40.0645 13.7505 41.1159C9.76161 41.8112 6.63155 42.6241 4.53676 43.4874C3.57041 43.8857 2.90314 44.2633 2.48461 44.5908L36.3639 39.0103ZM2.48461 45.4092L36.3639 50.9897C27.5958 50.6878 19.7818 49.9355 13.7505 48.8841C9.76161 48.1888 6.63155 47.3759 4.53676 46.5126C3.57041 46.1143 2.90314 45.7367 2.48461 45.4092ZM39.0102 53.6358L44.5907 87.5154C44.2632 87.0969 43.8857 86.4295 43.4874 85.4632C42.6241 83.3685 41.8112 80.2384 41.1159 76.2495C40.0645 70.2181 39.3122 62.404 39.0102 53.6358ZM45.4093 87.5154L50.9897 53.6358C50.6877 62.404 49.9354 70.2181 48.884 76.2495C48.1887 80.2384 47.3758 83.3685 46.5126 85.4632C46.1143 86.4295 45.7368 87.0969 45.4093 87.5154ZM53.6361 50.9897L87.5155 45.4092C87.097 45.7367 86.4296 46.1143 85.4632 46.5126C83.3685 47.3759 80.2384 48.1888 76.2496 48.8841C70.2182 49.9355 62.4042 50.6877 53.6361 50.9897ZM87.5155 44.5908L53.6361 39.0103C62.4042 39.3123 70.2182 40.0645 76.2496 41.1159C80.2384 41.8112 83.3685 42.6241 85.4632 43.4874C86.4296 43.8857 87.097 44.2633 87.5155 44.5908Z" fill="white"/>
</svg>
