<svg width="90" height="90" viewBox="0 0 90 90" fill="none" xmlns="http://www.w3.org/2000/svg">
<path d="M45 0L45.761 20.81C46.2265 33.5415 56.3059 43.7518 68.8679 44.2172L90 45L68.8679 45.7828C56.3059 46.2482 46.2265 56.4585 45.761 69.19L45 90L44.239 69.19C43.7735 56.4585 33.6941 46.2482 21.1321 45.7828L0 45L21.1321 44.2172C33.6941 43.7518 43.7735 33.5415 44.239 20.81L45 0Z" fill="white"/>
<path d="M67.2 6.02882L57.5928 24.4364C51.7151 35.6981 55.407 49.6484 66.0564 56.4172L83.9711 67.804L65.284 57.7731C54.1755 51.8103 40.4093 55.5449 33.7253 66.3348L22.8 83.9711L32.4072 65.5635C38.2849 54.3018 34.593 40.3515 23.9436 33.5827L6.02886 22.1959L24.716 32.2268C35.8245 38.1897 49.5907 34.455 56.2747 23.6652L67.2 6.02882Z" fill="white"/>
<path d="M83.4515 22.5L66.0503 33.5729C55.4043 40.3473 51.7195 54.2995 57.6028 65.5581L67.5 84.4978L56.2651 66.341C49.5865 55.5476 35.8222 51.8058 24.7106 57.7629L6.54847 67.5L23.9497 56.4271C34.5957 49.6527 38.2805 35.7005 32.3972 24.4419L22.5 5.50222L33.7349 23.659C40.4135 34.4524 54.1778 38.1942 65.2894 32.2371L83.4515 22.5Z" fill="white"/>
</svg>
