<svg width="26" height="24" viewBox="0 0 26 24" fill="none" xmlns="http://www.w3.org/2000/svg">
<path fill-rule="evenodd" clip-rule="evenodd" d="M0.399902 4.64999C0.399902 2.52369 2.12361 0.799988 4.2499 0.799988H21.7499C23.8762 0.799988 25.5999 2.52369 25.5999 4.64999V15.15C25.5999 17.2763 23.8762 19 21.7499 19H13.8678C13.7842 19 13.7035 19.0299 13.64 19.0842L9.13323 22.9472C8.8219 23.2141 8.38369 23.2753 8.01115 23.1039C7.63861 22.9326 7.3999 22.56 7.3999 22.15V19.35C7.3999 19.1567 7.2432 19 7.0499 19H4.2499C2.12361 19 0.399902 17.2763 0.399902 15.15V4.64999ZM4.2499 2.89999C3.2834 2.89999 2.4999 3.68349 2.4999 4.64999V15.15C2.4999 16.1165 3.2834 16.9 4.2499 16.9H7.0499C8.403 16.9 9.4999 17.9969 9.4999 19.35V19.8671L12.2734 17.4898C12.7174 17.1092 13.283 16.9 13.8678 16.9H21.7499C22.7164 16.9 23.4999 16.1165 23.4999 15.15V4.64999C23.4999 3.68349 22.7164 2.89999 21.7499 2.89999H4.2499Z" fill="black"/>
</svg>
