<svg width="24" height="26" viewBox="0 0 24 26" fill="none" xmlns="http://www.w3.org/2000/svg">
<path fill-rule="evenodd" clip-rule="evenodd" d="M11.4037 0.58562C11.7626 0.338118 12.237 0.338118 12.5959 0.58562L21.5356 6.7509C22.5776 7.46953 23.1998 8.65446 23.1998 9.92027V21.75C23.1998 23.8763 21.4761 25.6 19.3498 25.6H4.6498C2.52351 25.6 0.799805 23.8763 0.799805 21.75V9.92027C0.799805 8.65446 1.42201 7.46953 2.46403 6.7509L11.4037 0.58562ZM9.8998 23.5H14.0998V16.85C14.0998 16.6567 13.9431 16.5 13.7498 16.5H10.2498C10.0565 16.5 9.8998 16.6567 9.8998 16.85V23.5ZM16.1998 23.5V16.85C16.1998 15.4969 15.1029 14.4 13.7498 14.4H10.2498C8.8967 14.4 7.7998 15.4969 7.7998 16.85V23.5H4.6498C3.68331 23.5 2.8998 22.7165 2.8998 21.75V9.92027C2.8998 9.3449 3.18262 8.8063 3.65627 8.47964L11.9998 2.72548L20.3433 8.47964C20.817 8.8063 21.0998 9.3449 21.0998 9.92027V21.75C21.0998 22.7165 20.3163 23.5 19.3498 23.5H16.1998Z" fill="black"/>
</svg>
