<svg width="27" height="27" viewBox="0 0 27 27" fill="none" xmlns="http://www.w3.org/2000/svg">
<path fill-rule="evenodd" clip-rule="evenodd" d="M11.6667 2.33333C6.51201 2.33333 2.33333 6.51201 2.33333 11.6667C2.33333 16.8213 6.51201 21 11.6667 21C16.8213 21 21 16.8213 21 11.6667C21 6.51201 16.8213 2.33333 11.6667 2.33333ZM0 11.6667C0 5.22334 5.22334 0 11.6667 0C18.11 0 23.3333 5.22334 23.3333 11.6667C23.3333 14.4681 22.3459 17.039 20.7001 19.0502L27.6583 26.0084C28.1139 26.464 28.1139 27.2027 27.6583 27.6583C27.2027 28.1139 26.464 28.1139 26.0084 27.6583L19.0502 20.7001C17.039 22.3459 14.4681 23.3333 11.6667 23.3333C5.22334 23.3333 0 18.11 0 11.6667Z" fill="black"/>
</svg>
