<svg width="20" height="26" viewBox="0 0 20 26" fill="none" xmlns="http://www.w3.org/2000/svg">
<path fill-rule="evenodd" clip-rule="evenodd" d="M10.0002 2.49999C8.0672 2.49999 6.50019 4.067 6.50019 5.99999C6.50019 7.93299 8.0672 9.49999 10.0002 9.49999C11.9332 9.49999 13.5002 7.93299 13.5002 5.99999C13.5002 4.067 11.9332 2.49999 10.0002 2.49999ZM4.4002 5.99999C4.4002 2.9072 6.9074 0.399994 10.0002 0.399994C13.093 0.399994 15.6002 2.9072 15.6002 5.99999C15.6002 9.09279 13.093 11.6 10.0002 11.6C6.9074 11.6 4.4002 9.09279 4.4002 5.99999ZM0.200195 22.275C0.200195 17.9258 3.72595 14.4 8.07519 14.4H11.9252C16.2744 14.4 19.8002 17.9258 19.8002 22.275C19.8002 24.1113 18.3115 25.6 16.4752 25.6H3.52519C1.68885 25.6 0.200195 24.1113 0.200195 22.275ZM8.07519 16.5C4.88575 16.5 2.3002 19.0856 2.3002 22.275C2.3002 22.9515 2.84865 23.5 3.52519 23.5H16.4752C17.1517 23.5 17.7002 22.9515 17.7002 22.275C17.7002 19.0856 15.1146 16.5 11.9252 16.5H8.07519Z" fill="black"/>
</svg>
