<svg width="23" height="23" viewBox="0 0 23 23" fill="none" xmlns="http://www.w3.org/2000/svg">
<path fill-rule="evenodd" clip-rule="evenodd" d="M7.98611 2.875C7.98611 1.28718 9.27329 0 10.8611 0H12.1389C13.7267 0 15.0139 1.28718 15.0139 2.875V3.01667L15.1141 2.91646L15.7917 3.5941L15.1141 2.91646C16.2369 1.7937 18.0572 1.7937 19.18 2.91646L20.0835 3.81998C21.2062 4.94274 21.2062 6.76309 20.0835 7.88584L19.9832 7.98611H20.125C21.7128 7.98611 23 9.27329 23 10.8611V12.1389C23 13.7267 21.7128 15.0139 20.125 15.0139H19.9833L20.0835 15.1141C21.2063 16.2369 21.2063 18.0572 20.0835 19.18L19.18 20.0835C18.0572 21.2063 16.2369 21.2063 15.1141 20.0835L15.0139 19.9833V20.125C15.0139 21.7128 13.7267 23 12.1389 23H10.8611C9.27329 23 7.98611 21.7128 7.98611 20.125V19.9832L7.8859 20.0834C6.76314 21.2062 4.94279 21.2062 3.82003 20.0834L2.91651 19.1799C1.79375 18.0572 1.79375 16.2368 2.91651 15.114L3.01667 15.0139H2.875C1.28718 15.0139 -7.61615e-08 13.7267 0 12.1389L7.61615e-08 10.8611C7.61615e-08 9.27329 1.28718 7.98611 2.875 7.98611H3.01671L2.91652 7.88592C1.79376 6.76316 1.79376 4.94281 2.91652 3.82006L3.82004 2.91653C4.9428 1.79377 6.76315 1.79377 7.8859 2.91653L7.98611 3.01674V2.875ZM10.8611 1.91667C10.3318 1.91667 9.90278 2.34573 9.90278 2.875V3.78794C9.90278 5.21091 8.18235 5.92355 7.17615 4.91735L6.53062 4.27182C6.15636 3.89757 5.54958 3.89757 5.17533 4.27182L4.2718 5.17534C3.89755 5.5496 3.89755 6.15638 4.2718 6.53063L4.91732 7.17615C5.92351 8.18234 5.21089 9.90278 3.78791 9.90278L2.875 9.90278C2.34573 9.90278 1.91667 10.3318 1.91667 10.8611V12.1389C1.91667 12.6682 2.34573 13.0972 2.875 13.0972H3.78788C5.21085 13.0972 5.92348 14.8177 4.91728 15.8238L4.2718 16.4693C3.89754 16.8436 3.89754 17.4504 4.2718 17.8246L5.17532 18.7282C5.54957 19.1024 6.15636 19.1024 6.53061 18.7281L7.17615 18.0826C8.18234 17.0764 9.90278 17.789 9.90278 19.212V20.125C9.90278 20.6543 10.3318 21.0833 10.8611 21.0833H12.1389C12.6682 21.0833 13.0972 20.6543 13.0972 20.125V19.2121C13.0972 17.7891 14.8177 17.0765 15.8239 18.0827L16.4694 18.7282C16.8436 19.1025 17.4504 19.1025 17.8247 18.7282L18.7282 17.8247C19.1025 17.4504 19.1025 16.8437 18.7282 16.4694L18.0826 15.8239C17.0765 14.8177 17.7891 13.0972 19.2121 13.0972H20.125C20.6543 13.0972 21.0833 12.6682 21.0833 12.1389V10.8611C21.0833 10.3318 20.6543 9.90278 20.125 9.90278H19.212C17.789 9.90278 17.0764 8.18234 18.0826 7.17615L18.7282 6.53056C19.1025 6.1563 19.1025 5.54952 18.7282 5.17527L17.8247 4.27174C17.4504 3.89749 16.8436 3.89749 16.4694 4.27174L15.8239 4.91728C14.8177 5.92347 13.0972 5.21085 13.0972 3.78787V2.875C13.0972 2.34573 12.6682 1.91667 12.1389 1.91667H10.8611ZM11.5 8.94444C10.0886 8.94444 8.94444 10.0886 8.94444 11.5C8.94444 12.9114 10.0886 14.0556 11.5 14.0556C12.9114 14.0556 14.0556 12.9114 14.0556 11.5C14.0556 10.0886 12.9114 8.94444 11.5 8.94444ZM7.02778 11.5C7.02778 9.03006 9.03006 7.02778 11.5 7.02778C13.9699 7.02778 15.9722 9.03006 15.9722 11.5C15.9722 13.9699 13.9699 15.9722 11.5 15.9722C9.03006 15.9722 7.02778 13.9699 7.02778 11.5Z" fill="#2B2B2B"/>
</svg>
