<svg width="16" height="16" viewBox="0 0 16 16" fill="none" xmlns="http://www.w3.org/2000/svg">
<path fill-rule="evenodd" clip-rule="evenodd" d="M7.99981 0.800598C8.49686 0.800598 8.89981 1.20354 8.89981 1.7006V7.10075H14.2998C14.7969 7.10075 15.1998 7.50369 15.1998 8.00075C15.1998 8.4978 14.7969 8.90075 14.2998 8.90075H8.89981V14.3006C8.89981 14.7977 8.49686 15.2006 7.99981 15.2006C7.50275 15.2006 7.09981 14.7977 7.09981 14.3006V8.90075H1.6998C1.20275 8.90075 0.799805 8.4978 0.799805 8.00075C0.799805 7.50369 1.20275 7.10075 1.6998 7.10075H7.09981V1.7006C7.09981 1.20354 7.50275 0.800598 7.99981 0.800598Z" fill="url(#paint0_linear_112_69)"/>
<defs>
<linearGradient id="paint0_linear_112_69" x1="7.99981" y1="0.800598" x2="7.99981" y2="15.2006" gradientUnits="userSpaceOnUse">
<stop stop-color="#CE67FF"/>
<stop offset="1" stop-color="#FF3D00"/>
</linearGradient>
</defs>
</svg>
