<svg width="18" height="18" viewBox="0 0 18 18" fill="none" xmlns="http://www.w3.org/2000/svg">
<path fill-rule="evenodd" clip-rule="evenodd" d="M9 0C9.41421 0 9.75 0.335786 9.75 0.75V7.25C9.75 7.66421 9.41421 8 9 8C8.58579 8 8.25 7.66421 8.25 7.25V0.75C8.25 0.335786 8.58579 0 9 0ZM3.6723 2.65647C3.96631 2.94825 3.96812 3.42312 3.67635 3.71713C2.33028 5.07352 1.5 6.93907 1.5 9C1.5 13.1421 4.85786 16.5 9 16.5C13.1421 16.5 16.5 13.1421 16.5 9C16.5 6.93907 15.6697 5.07352 14.3236 3.71713C14.0319 3.42312 14.0337 2.94825 14.3277 2.65648C14.6217 2.3647 15.0966 2.36652 15.3884 2.66052C17.0019 4.28643 18 6.52738 18 9C18 13.9706 13.9706 18 9 18C4.02944 18 0 13.9706 0 9C0 6.52738 0.99811 4.28643 2.61165 2.66052C2.90342 2.36651 3.37829 2.3647 3.6723 2.65647Z" fill="black"/>
</svg>
