<svg width="13" height="13" viewBox="0 0 13 13" fill="none" xmlns="http://www.w3.org/2000/svg">
<path fill-rule="evenodd" clip-rule="evenodd" d="M8.3797 1.33126C8.8159 0.895051 9.40753 0.649994 10.0244 0.649994C11.309 0.649994 12.3504 1.69137 12.3504 2.97597C12.3504 3.59286 12.1053 4.18448 11.6691 4.62069L4.08261 12.2072C3.99118 12.2986 3.86718 12.35 3.73789 12.35H1.13789C0.868652 12.35 0.650391 12.1317 0.650391 11.8625V9.26249C0.650391 9.1332 0.701752 9.0092 0.793176 8.91778L8.3797 1.33126ZM10.0244 1.62499C9.66611 1.62499 9.32248 1.76733 9.06913 2.02069L8.81482 2.27499L10.7254 4.18557L10.9797 3.93126C11.2331 3.6779 11.3754 3.33427 11.3754 2.97597C11.3754 2.22985 10.7705 1.62499 10.0244 1.62499ZM10.036 4.87499L8.12539 2.96442L1.62539 9.46442V11.375H3.53596L10.036 4.87499Z" fill="#2C2B2B"/>
</svg>
